<?xml version="1.0" encoding="UTF-8"?>
<svg xmlns="http://www.w3.org/2000/svg" xmlns:xlink="http://www.w3.org/1999/xlink" width="841.92004" height="595.32001" viewBox="0 0 841.92004 595.32001">
<defs>
<clipPath id="clip-0">
<path clip-rule="nonzero" d="M 0.441406 0 L 841.398438 0 L 841.398438 594.640625 L 0.441406 594.640625 Z M 0.441406 0 "/>
</clipPath>
</defs>
<g clip-path="url(#clip-0)">
<path fill-rule="nonzero" fill="rgba(100%, 100%, 100%, 0)" fill-opacity="1" d="M 0.441406 0 L 841.398438 0 L 841.398438 594.640625 L 0.441406 594.640625 Z M 0.441406 0 "/>
<path fill-rule="nonzero" fill="rgba(100%, 100%, 100%, 0)" fill-opacity="1" d="M 0.441406 0 L 1682.359375 0 L 1682.359375 1189.28125 L 0.441406 1189.28125 Z M 0.441406 0 "/>
</g>
<path fill="none" stroke-width="0.16" stroke-linecap="butt" stroke-linejoin="miter" stroke="rgb(0%, 0%, 0%)" stroke-opacity="1" stroke-miterlimit="10" d="M 669.11899 341.759709 L 453.440626 341.759709 " transform="matrix(0.749144, 0, 0, 0.749144, 0.440349, 0.00000299658)"/>
<path fill="none" stroke-width="0.16" stroke-linecap="butt" stroke-linejoin="miter" stroke="rgb(0%, 0%, 0%)" stroke-opacity="1" stroke-miterlimit="10" d="M 453.440626 341.759709 L 453.440626 452.000068 " transform="matrix(0.749144, 0, 0, 0.749144, 0.440349, 0.00000299658)"/>
<path fill="none" stroke-width="0.16" stroke-linecap="butt" stroke-linejoin="miter" stroke="rgb(0%, 0%, 0%)" stroke-opacity="1" stroke-miterlimit="10" d="M 453.440626 452.000068 L 669.11899 452.000068 " transform="matrix(0.749144, 0, 0, 0.749144, 0.440349, 0.00000299658)"/>
<path fill="none" stroke-width="0.16" stroke-linecap="butt" stroke-linejoin="miter" stroke="rgb(0%, 0%, 0%)" stroke-opacity="1" stroke-miterlimit="10" d="M 669.11899 452.000068 L 669.11899 341.759709 " transform="matrix(0.749144, 0, 0, 0.749144, 0.440349, 0.00000299658)"/>
<path fill-rule="nonzero" fill="rgb(0%, 0%, 0%)" fill-opacity="1" d="M 449.6875 257.464844 L 449.566406 257.585938 L 449.566406 257.824219 L 453.042969 261.300781 L 454.003906 261.542969 L 454.601562 261.78125 L 454.839844 262.019531 L 455.082031 262.140625 L 459.515625 262.140625 L 459.636719 262.019531 L 459.996094 261.78125 L 460.234375 261.78125 L 460.59375 261.542969 L 461.074219 261.421875 L 461.671875 261.300781 L 462.273438 261.300781 L 462.871094 261.421875 L 463.351562 261.542969 L 463.949219 261.78125 L 465.148438 262.980469 L 465.390625 263.578125 L 465.628906 264.539062 L 467.667969 266.574219 L 479.171875 266.574219 L 479.292969 266.457031 L 479.292969 265.976562 L 479.53125 265.617188 L 479.773438 265.136719 L 480.371094 264.539062 L 480.492188 264.539062 L 480.972656 264.417969 L 481.210938 264.296875 L 487.445312 264.296875 L 487.804688 264.417969 L 488.28125 264.539062 L 488.644531 264.777344 L 489.003906 265.136719 L 489.242188 265.617188 L 489.363281 265.617188 L 489.480469 265.976562 L 489.480469 272.808594 L 489.363281 273.289062 L 489.242188 273.289062 L 489.003906 273.765625 L 488.644531 274.125 L 488.28125 274.367188 L 487.804688 274.488281 L 480.972656 274.488281 L 480.492188 274.367188 L 480.132812 274.125 L 479.773438 273.765625 L 479.292969 272.808594 L 479.292969 272.570312 L 479.054688 272.328125 L 466.109375 272.328125 L 465.988281 272.210938 L 465.628906 272.210938 L 465.148438 271.96875 L 464.191406 271.25 L 461.554688 268.613281 L 461.074219 268.613281 L 460.59375 268.375 L 459.996094 268.132812 L 459.636719 267.894531 L 459.515625 267.773438 L 455.082031 267.773438 L 454.960938 267.894531 L 454.839844 267.894531 L 454.601562 268.132812 L 454.242188 268.253906 L 454.003906 268.375 L 453.882812 268.492188 L 453.523438 268.613281 L 451.726562 268.613281 L 451.246094 268.375 L 450.644531 268.132812 L 450.285156 267.773438 L 450.167969 267.773438 L 449.808594 267.414062 L 449.6875 267.175781 L 449.449219 266.933594 L 449.207031 266.335938 L 448.96875 265.375 L 447.289062 263.699219 L 447.050781 263.699219 L 446.929688 263.820312 L 446.929688 265.855469 L 446.691406 266.335938 L 446.449219 266.933594 L 446.089844 267.414062 L 445.730469 267.773438 L 445.253906 268.132812 L 444.894531 268.253906 L 444.652344 268.375 L 444.53125 268.492188 L 444.171875 268.613281 L 442.375 268.613281 L 441.894531 268.375 L 441.296875 268.132812 L 441.058594 267.894531 L 440.816406 267.773438 L 437.101562 267.773438 L 436.980469 267.894531 L 436.742188 268.015625 L 436.742188 270.050781 L 436.621094 270.53125 L 436.621094 270.652344 L 436.503906 271.011719 L 435.78125 271.96875 L 433.265625 274.367188 L 433.265625 274.726562 L 433.503906 274.964844 L 446.089844 274.964844 L 446.570312 275.085938 L 446.929688 275.207031 L 447.050781 275.207031 L 447.53125 275.566406 L 461.554688 289.589844 L 461.792969 289.710938 L 461.914062 289.710938 L 462.03125 289.589844 L 462.753906 289.230469 L 462.871094 289.109375 L 463.113281 289.109375 L 463.351562 288.988281 L 482.289062 288.988281 L 482.410156 288.871094 L 482.648438 288.75 L 482.648438 288.511719 L 482.410156 288.269531 L 482.171875 288.152344 L 480.972656 287.433594 L 480.492188 286.953125 L 480.132812 286.472656 L 479.773438 285.875 L 479.53125 285.273438 L 479.414062 284.554688 L 479.292969 283.957031 L 479.292969 283.238281 L 479.414062 282.636719 L 479.53125 281.917969 L 479.773438 281.320312 L 479.894531 281.078125 L 480.132812 280.71875 L 480.492188 280.238281 L 480.972656 279.761719 L 481.570312 279.402344 L 481.808594 279.160156 L 482.171875 279.042969 L 482.769531 278.800781 L 483.007812 278.683594 L 483.367188 278.5625 L 484.089844 278.441406 L 484.6875 278.441406 L 485.40625 278.5625 L 486.605469 279.042969 L 487.804688 279.761719 L 488.28125 280.238281 L 488.644531 280.71875 L 489.003906 281.320312 L 489.242188 281.917969 L 489.363281 282.636719 L 489.480469 283.238281 L 489.480469 283.957031 L 489.363281 284.433594 L 489.480469 284.675781 L 496.074219 291.265625 L 496.195312 291.507812 L 496.433594 291.625 L 496.792969 292.105469 L 496.914062 292.347656 L 496.914062 292.585938 L 497.03125 292.707031 L 497.03125 314.878906 L 496.914062 315.238281 L 496.914062 315.359375 L 496.792969 315.839844 L 496.433594 316.320312 L 489.242188 323.511719 L 489.242188 323.628906 L 489.363281 324.109375 L 489.363281 324.828125 L 489.242188 325.429688 L 489.121094 326.148438 L 488.761719 326.746094 L 488.644531 327.105469 L 488.523438 327.347656 L 487.324219 328.542969 L 487.085938 328.664062 L 486.726562 328.90625 L 486.484375 329.023438 L 485.285156 329.503906 L 484.566406 329.625 L 483.847656 329.625 L 483.367188 329.503906 L 483.25 329.503906 L 475.9375 336.816406 L 475.9375 337.054688 L 476.058594 337.175781 L 476.296875 337.292969 L 500.03125 337.292969 L 500.390625 336.933594 L 500.390625 257.707031 L 500.03125 257.347656 L 449.925781 257.347656 Z M 449.6875 257.464844 "/>
<path fill-rule="nonzero" fill="rgb(0%, 0%, 0%)" fill-opacity="1" d="M 341.691406 328.542969 L 341.449219 328.785156 L 341.449219 336.933594 L 341.808594 337.292969 L 348.28125 337.292969 L 348.28125 337.175781 L 348.523438 337.175781 L 348.523438 336.933594 L 348.644531 336.933594 L 348.523438 336.933594 L 348.644531 336.816406 L 348.523438 336.816406 L 348.523438 336.695312 L 343.25 331.421875 L 342.890625 330.941406 L 342.648438 330.460938 L 342.648438 329.382812 L 342.53125 329.265625 L 342.53125 329.144531 L 342.289062 328.90625 L 342.050781 328.425781 L 341.808594 328.425781 Z M 341.691406 328.542969 "/>
<path fill-rule="nonzero" fill="rgb(0%, 0%, 0%)" fill-opacity="1" d="M 447.050781 292.464844 L 446.929688 292.585938 L 446.929688 294.625 L 446.449219 295.582031 L 446.449219 295.703125 L 446.210938 296.0625 L 446.089844 296.183594 L 446.089844 307.808594 L 446.210938 307.929688 L 446.210938 308.046875 L 447.289062 309.007812 L 448.25 309.964844 L 448.367188 310.207031 L 448.609375 310.445312 L 448.847656 310.804688 L 448.96875 311.042969 L 449.085938 311.40625 L 449.207031 311.523438 L 449.207031 322.671875 L 449.085938 323.269531 L 448.609375 324.230469 L 448.25 324.589844 L 448.128906 324.589844 L 443.695312 329.144531 L 443.214844 329.382812 L 443.09375 329.503906 L 442.734375 329.625 L 442.253906 329.742188 L 414.6875 329.742188 L 414.566406 329.863281 L 414.449219 330.101562 L 414.566406 330.222656 L 414.566406 330.34375 L 415.886719 331.660156 L 449.085938 331.660156 L 449.207031 331.542969 L 449.328125 331.300781 L 449.207031 331.183594 L 449.207031 331.0625 L 449.085938 330.582031 L 448.96875 329.984375 L 448.96875 329.265625 L 449.085938 328.785156 L 449.085938 328.542969 L 449.328125 328.066406 L 449.449219 327.707031 L 449.808594 327.347656 L 450.167969 326.867188 L 450.644531 326.507812 L 450.886719 326.386719 L 451.246094 326.265625 L 452.203125 326.027344 L 452.921875 326.027344 L 453.523438 326.148438 L 454.003906 326.265625 L 454.601562 326.507812 L 455.082031 326.867188 L 455.441406 327.347656 L 455.800781 327.707031 L 456.039062 328.304688 L 456.28125 329.265625 L 456.398438 329.382812 L 457.71875 330.820312 L 458.078125 330.820312 L 458.316406 330.582031 L 458.316406 330.460938 L 458.199219 329.984375 L 458.199219 329.382812 L 458.316406 329.023438 L 458.316406 328.90625 L 458.4375 328.542969 L 458.796875 327.824219 L 458.796875 327.707031 L 459.15625 327.347656 L 459.515625 326.867188 L 460.234375 326.507812 L 460.476562 326.265625 L 461.074219 326.148438 L 461.554688 326.027344 L 462.273438 326.027344 L 462.753906 326.148438 L 463.351562 326.265625 L 463.589844 326.507812 L 464.070312 326.507812 L 464.070312 326.386719 L 479.054688 311.523438 L 479.171875 311.285156 L 479.171875 306.730469 L 479.53125 306.011719 L 479.894531 305.652344 L 480.371094 305.410156 L 480.851562 305.292969 L 481.089844 305.171875 L 487.324219 305.171875 L 487.683594 305.292969 L 488.164062 305.410156 L 488.523438 305.652344 L 488.882812 306.011719 L 489.121094 306.488281 L 489.242188 306.609375 L 489.363281 306.96875 L 489.363281 313.683594 L 489.121094 314.160156 L 489.121094 314.28125 L 488.882812 314.640625 L 488.523438 315 L 488.164062 315.238281 L 487.683594 315.359375 L 483.25 315.359375 L 483.128906 315.480469 L 483.007812 315.480469 L 467.425781 331.0625 L 467.308594 331.300781 L 467.308594 331.542969 L 467.425781 331.660156 L 473.058594 331.660156 L 479.054688 325.546875 L 479.171875 325.429688 L 479.171875 323.511719 L 479.414062 322.792969 L 479.652344 322.191406 L 479.773438 321.953125 L 480.011719 321.59375 L 480.371094 321.113281 L 480.851562 320.632812 L 481.449219 320.273438 L 481.570312 320.035156 L 482.648438 319.675781 L 483.25 319.433594 L 483.847656 319.316406 L 484.566406 319.316406 L 485.046875 319.433594 L 485.285156 319.433594 L 491.28125 313.441406 L 491.398438 313.203125 L 491.398438 300.136719 L 491.160156 300.015625 L 490.800781 300.015625 L 490.320312 300.257812 L 488.523438 300.257812 L 488.042969 300.015625 L 487.445312 299.777344 L 487.085938 299.417969 L 486.605469 299.058594 L 486.484375 298.820312 L 486.246094 298.578125 L 486.003906 297.980469 L 485.886719 297.5 L 485.765625 297.140625 L 485.765625 297.019531 L 483.367188 294.625 L 478.933594 294.625 L 478.574219 294.984375 L 478.695312 295.101562 L 478.695312 295.222656 L 478.8125 295.703125 L 478.933594 296.300781 L 478.933594 296.902344 L 478.8125 297.5 L 478.695312 297.980469 L 478.453125 298.339844 L 478.453125 298.578125 L 478.09375 299.058594 L 477.617188 299.417969 L 477.253906 299.65625 L 477.253906 299.777344 L 477.015625 299.898438 L 476.65625 300.015625 L 476.535156 300.136719 L 476.175781 300.257812 L 475.699219 300.257812 L 472.941406 303.015625 L 472.699219 303.132812 L 472.339844 303.375 L 472.222656 303.492188 L 471.742188 303.734375 L 471.261719 303.851562 L 464.191406 303.851562 L 463.472656 304.332031 L 463.351562 304.332031 L 463.113281 304.453125 L 462.753906 304.570312 L 462.632812 304.570312 L 462.273438 304.691406 L 461.671875 304.691406 L 461.074219 304.570312 L 460.476562 304.332031 L 459.996094 304.09375 L 459.636719 303.851562 L 458.917969 303.132812 L 458.558594 302.414062 L 458.4375 302.054688 L 458.316406 301.816406 L 457.957031 301.816406 L 457 302.773438 L 456.757812 302.894531 L 456.640625 303.132812 L 456.519531 303.253906 L 456.160156 303.492188 L 455.921875 303.492188 L 455.558594 303.613281 L 455.320312 303.734375 L 455.082031 303.734375 L 454.960938 303.851562 L 454.722656 303.972656 L 454.601562 304.09375 L 454.363281 304.210938 L 454.003906 304.332031 L 453.882812 304.332031 L 453.523438 304.570312 L 451.726562 304.570312 L 451.246094 304.332031 L 450.644531 304.09375 L 450.40625 303.851562 L 450.167969 303.734375 L 449.808594 303.375 L 449.6875 303.132812 L 449.449219 302.894531 L 449.207031 302.292969 L 449.085938 301.816406 L 448.96875 301.214844 L 448.96875 300.375 L 449.085938 300.015625 L 449.085938 299.777344 L 449.207031 299.539062 L 449.328125 299.179688 L 449.449219 298.9375 L 449.808594 298.578125 L 450.167969 298.097656 L 450.644531 297.738281 L 450.765625 297.738281 L 451.003906 297.621094 L 451.125 297.5 L 451.125 297.140625 L 451.003906 297.019531 L 450.644531 296.902344 L 450.527344 296.78125 L 450.167969 296.542969 L 449.808594 296.183594 L 449.566406 295.820312 L 449.449219 295.703125 L 449.207031 295.101562 L 448.96875 294.144531 L 447.289062 292.464844 Z M 447.050781 292.464844 "/>
<path fill-rule="nonzero" fill="rgb(0%, 0%, 0%)" fill-opacity="1" d="M 405.578125 330.703125 L 405.457031 330.703125 L 405.457031 330.820312 L 405.21875 330.941406 L 405.097656 331.0625 L 404.976562 331.300781 L 404.976562 331.421875 L 405.097656 331.660156 L 406.417969 331.660156 L 406.535156 331.542969 L 406.535156 331.300781 L 406.296875 331.0625 L 406.058594 330.941406 L 405.816406 330.703125 Z M 405.578125 330.703125 "/>
<path fill-rule="nonzero" fill="rgb(0%, 0%, 0%)" fill-opacity="1" d="M 398.144531 327.824219 L 398.027344 327.824219 L 396.828125 329.144531 L 396.707031 329.265625 L 396.707031 330.703125 L 397.667969 331.660156 L 399.585938 331.660156 L 399.703125 331.542969 L 399.703125 331.183594 L 399.464844 330.941406 L 399.105469 330.703125 L 398.867188 330.222656 L 398.746094 329.742188 L 398.625 329.503906 L 398.625 327.824219 L 398.503906 327.707031 L 398.265625 327.707031 Z M 398.144531 327.824219 "/>
<path fill-rule="nonzero" fill="rgb(0%, 0%, 0%)" fill-opacity="1" d="M 387.359375 327.105469 L 386.039062 328.425781 L 386.039062 328.90625 L 385.800781 329.503906 L 385.558594 329.984375 L 385.199219 330.460938 L 384.839844 330.820312 L 384.480469 331.0625 L 384.363281 331.183594 L 384.363281 331.421875 L 384.480469 331.660156 L 389.15625 331.660156 L 389.15625 331.542969 L 389.277344 331.542969 L 389.277344 331.183594 L 389.035156 330.941406 L 388.917969 330.703125 L 388.917969 330.582031 L 388.4375 330.101562 L 388.4375 329.984375 L 388.199219 329.382812 L 387.957031 328.90625 L 387.835938 328.304688 L 387.835938 327.707031 L 387.957031 327.464844 L 387.957031 327.226562 L 387.71875 327.105469 L 387.597656 326.988281 Z M 387.359375 327.105469 "/>
<path fill-rule="nonzero" fill="rgb(0%, 0%, 0%)" fill-opacity="1" d="M 351.878906 305.050781 L 351.640625 305.292969 L 351.519531 305.652344 L 351.28125 306.011719 L 350.921875 306.25 L 350.800781 306.25 L 350.558594 306.371094 L 348.644531 306.371094 L 348.402344 306.488281 L 348.28125 306.609375 L 348.28125 315.597656 L 348.523438 315.960938 L 348.882812 316.4375 L 349.003906 317.039062 L 349.121094 317.515625 L 349.121094 318.117188 L 348.882812 319.316406 L 348.523438 319.792969 L 348.28125 320.15625 L 348.28125 324.589844 L 348.523438 324.949219 L 348.882812 325.546875 L 349.121094 326.507812 L 349.121094 327.347656 L 348.882812 328.304688 L 348.644531 328.785156 L 351.519531 331.660156 L 380.285156 331.660156 L 380.40625 331.542969 L 380.40625 331.183594 L 380.046875 330.820312 L 379.566406 330.460938 L 379.207031 329.984375 L 379.085938 329.742188 L 376.691406 329.742188 L 376.449219 329.863281 L 376.089844 330.101562 L 375.371094 330.460938 L 375.011719 330.460938 L 374.894531 330.582031 L 373.933594 330.582031 L 372.734375 330.34375 L 372.253906 330.101562 L 371.894531 329.863281 L 371.777344 329.742188 L 371.65625 329.503906 L 371.058594 328.90625 L 370.816406 328.304688 L 370.578125 327.824219 L 370.457031 327.226562 L 370.457031 326.625 L 370.578125 326.386719 L 370.578125 326.027344 L 370.816406 325.546875 L 370.9375 325.1875 L 371.058594 324.949219 L 371.175781 324.828125 L 371.417969 324.46875 L 371.777344 324.109375 L 372.253906 323.75 L 372.375 323.628906 L 372.734375 323.511719 L 373.335938 323.269531 L 375.011719 323.269531 L 375.613281 323.511719 L 376.089844 323.75 L 376.449219 323.988281 L 376.691406 324.109375 L 381.605469 324.109375 L 382.085938 324.230469 L 382.203125 324.109375 L 382.324219 324.109375 L 386.519531 319.914062 L 386.640625 319.675781 L 386.640625 319.554688 L 386.519531 319.316406 L 377.648438 319.316406 L 377.53125 319.433594 L 377.289062 319.792969 L 377.050781 320.273438 L 376.570312 320.632812 L 376.210938 320.875 L 376.089844 320.992188 L 375.613281 321.234375 L 375.253906 321.351562 L 375.011719 321.472656 L 374.894531 321.472656 L 374.53125 321.59375 L 373.933594 321.59375 L 373.335938 321.472656 L 372.734375 321.234375 L 372.253906 320.992188 L 371.894531 320.753906 L 371.175781 320.035156 L 370.816406 319.316406 L 370.578125 318.714844 L 370.457031 318.117188 L 370.457031 317.515625 L 370.578125 317.039062 L 370.578125 316.917969 L 371.058594 315.960938 L 371.058594 315.839844 L 371.175781 315.71875 L 371.058594 315.480469 L 370.9375 315.359375 L 364.703125 315.359375 L 364.585938 315.238281 L 364.105469 315.238281 L 363.984375 315.121094 L 363.625 315 L 363.144531 314.640625 L 354.996094 306.488281 L 354.753906 306.371094 L 353.558594 306.128906 L 353.078125 305.890625 L 352.597656 305.53125 L 352.117188 305.050781 Z M 351.878906 305.050781 "/>
<path fill-rule="nonzero" fill="rgb(0%, 0%, 0%)" fill-opacity="1" d="M 341.691406 319.433594 L 341.449219 319.675781 L 341.449219 325.070312 L 341.570312 325.1875 L 341.691406 325.429688 L 341.929688 325.429688 L 342.171875 325.1875 L 342.289062 324.949219 L 342.410156 324.828125 L 342.53125 324.589844 L 342.648438 324.46875 L 342.648438 320.394531 L 342.53125 320.15625 L 342.289062 319.792969 L 342.171875 319.554688 L 342.050781 319.433594 L 341.808594 319.316406 Z M 341.691406 319.433594 "/>
<path fill-rule="nonzero" fill="rgb(0%, 0%, 0%)" fill-opacity="1" d="M 424.636719 284.792969 L 424.277344 285.035156 L 423.917969 285.152344 L 423.796875 285.273438 L 423.558594 285.394531 L 423.199219 285.515625 L 422.957031 285.515625 L 422.597656 285.632812 L 422 285.632812 L 421.519531 285.515625 L 421.160156 285.394531 L 420.921875 285.394531 L 420.679688 285.632812 L 420.679688 285.875 L 424.515625 289.710938 L 424.875 290.1875 L 424.875 290.308594 L 424.996094 290.667969 L 425.117188 290.789062 L 425.117188 293.542969 L 425.234375 293.785156 L 425.476562 294.144531 L 425.714844 294.625 L 425.953125 295.222656 L 425.953125 296.902344 L 425.714844 297.5 L 425.476562 297.980469 L 425.117188 298.460938 L 424.753906 298.820312 L 424.394531 299.058594 L 424.277344 299.179688 L 423.558594 299.539062 L 423.199219 299.65625 L 422.71875 299.65625 L 419.003906 303.375 L 418.523438 303.613281 L 418.402344 303.734375 L 418.042969 303.851562 L 417.5625 303.972656 L 414.328125 303.972656 L 414.328125 304.09375 L 414.207031 304.09375 L 414.207031 304.570312 L 414.328125 304.570312 L 414.449219 304.691406 L 422.597656 312.960938 L 422.835938 313.082031 L 422.957031 313.082031 L 423.4375 312.960938 L 424.035156 312.960938 L 424.753906 313.082031 L 425.355469 313.203125 L 425.953125 313.441406 L 427.152344 314.160156 L 427.632812 314.640625 L 428.351562 315.839844 L 428.589844 316.4375 L 428.710938 317.039062 L 428.832031 317.757812 L 428.832031 319.195312 L 433.625 323.988281 L 433.867188 324.109375 L 440.578125 324.109375 L 440.699219 323.988281 L 440.816406 323.988281 L 441.058594 323.75 L 441.058594 323.390625 L 440.816406 323.152344 L 434.464844 323.152344 L 433.984375 323.03125 L 433.265625 322.3125 L 433.027344 321.953125 L 432.785156 321.472656 L 432.785156 316.917969 L 432.667969 316.917969 L 432.1875 316.320312 L 431.707031 315.960938 L 431.226562 315 L 431.226562 314.878906 L 431.109375 314.519531 L 431.109375 296.183594 L 430.988281 296.0625 L 430.75 295.703125 L 430.507812 295.101562 L 430.390625 294.625 L 430.269531 294.023438 L 430.269531 293.304688 L 430.507812 292.347656 L 430.628906 292.105469 L 430.75 291.746094 L 431.949219 290.546875 L 432.1875 290.546875 L 432.546875 290.308594 L 433.027344 290.1875 L 433.625 290.070312 L 434.226562 290.070312 L 434.824219 290.1875 L 435.304688 290.308594 L 435.902344 290.546875 L 436.382812 290.90625 L 436.742188 291.386719 L 437.101562 291.746094 L 437.339844 292.347656 L 437.582031 292.824219 L 437.582031 294.625 L 437.101562 295.582031 L 437.101562 295.703125 L 436.863281 296.0625 L 436.742188 296.183594 L 436.742188 312.601562 L 436.863281 312.84375 L 436.980469 312.960938 L 441.296875 312.960938 L 442.253906 313.441406 L 442.496094 313.800781 L 442.855469 314.160156 L 442.855469 314.402344 L 442.976562 314.519531 L 443.214844 314.640625 L 443.335938 314.640625 L 443.453125 314.402344 L 443.574219 314.28125 L 443.574219 313.5625 L 443.453125 313.320312 L 441.058594 310.925781 L 440.578125 309.964844 L 440.578125 309.847656 L 440.457031 309.605469 L 440.457031 296.183594 L 440.335938 296.0625 L 440.097656 295.703125 L 439.859375 295.101562 L 439.738281 294.625 L 439.617188 294.023438 L 439.617188 293.304688 L 439.859375 292.347656 L 439.976562 292.105469 L 440.097656 291.746094 L 441.296875 290.546875 L 441.535156 290.546875 L 441.894531 290.308594 L 442.375 290.1875 L 442.976562 290.070312 L 443.574219 290.070312 L 444.171875 290.1875 L 444.53125 289.828125 L 444.53125 289.589844 L 444.414062 289.589844 L 439.738281 284.792969 L 439.5 284.792969 L 439.5 284.675781 L 424.753906 284.675781 Z M 424.636719 284.792969 "/>
<path fill-rule="nonzero" fill="rgb(0%, 0%, 0%)" fill-opacity="1" d="M 412.410156 310.925781 L 412.289062 311.042969 L 412.171875 311.042969 L 412.171875 311.644531 L 412.050781 312.242188 L 411.808594 312.722656 L 411.808594 312.960938 L 411.570312 313.203125 L 411.570312 313.320312 L 411.332031 313.683594 L 411.210938 313.800781 L 411.210938 314.28125 L 410.972656 314.761719 L 410.613281 315.238281 L 410.253906 315.597656 L 406.417969 319.554688 L 406.296875 319.675781 L 406.296875 319.914062 L 406.535156 320.15625 L 411.808594 320.15625 L 412.050781 320.273438 L 412.171875 320.273438 L 412.648438 320.394531 L 413.128906 320.753906 L 416.484375 324.109375 L 424.875 324.109375 L 425.117188 323.988281 L 425.234375 323.871094 L 425.234375 323.511719 L 425.117188 323.511719 L 424.875 323.152344 L 423.4375 323.152344 L 422.71875 323.03125 L 422.117188 322.910156 L 421.519531 322.671875 L 420.320312 321.953125 L 419.960938 321.472656 L 419.480469 320.875 L 419.121094 320.273438 L 418.882812 319.675781 L 418.761719 319.074219 L 418.644531 318.355469 L 418.644531 317.757812 L 418.761719 317.277344 L 418.644531 317.039062 L 418.644531 316.917969 L 412.769531 311.042969 L 412.648438 311.042969 L 412.648438 310.925781 Z M 412.410156 310.925781 "/>
<path fill-rule="nonzero" fill="rgb(0%, 0%, 0%)" fill-opacity="1" d="M 341.691406 257.464844 L 341.449219 257.707031 L 341.449219 315.960938 L 341.570312 316.199219 L 341.691406 316.320312 L 341.929688 316.320312 L 342.050781 316.199219 L 342.171875 316.199219 L 342.171875 316.078125 L 342.410156 315.839844 L 342.648438 315.359375 L 342.648438 304.210938 L 342.890625 303.734375 L 342.890625 303.613281 L 343.96875 302.535156 L 344.085938 302.292969 L 344.085938 299.898438 L 344.207031 299.417969 L 344.449219 299.179688 L 344.808594 298.9375 L 344.925781 298.820312 L 345.046875 298.578125 L 345.046875 293.542969 L 345.167969 293.304688 L 345.285156 292.945312 L 345.644531 292.226562 L 353.199219 284.675781 L 353.199219 280.480469 L 353.316406 280.238281 L 353.4375 279.761719 L 353.675781 279.28125 L 354.035156 278.921875 L 354.515625 278.683594 L 355.234375 278.441406 L 361.585938 278.441406 L 361.707031 278.320312 L 361.707031 276.765625 L 361.585938 276.765625 L 359.308594 274.488281 L 357.394531 274.488281 L 356.671875 274.246094 L 356.074219 274.007812 L 355.476562 273.648438 L 354.996094 273.289062 L 354.035156 272.328125 L 353.558594 271.128906 L 353.316406 270.410156 L 353.199219 269.8125 L 353.199219 269.09375 L 353.316406 268.492188 L 353.558594 267.773438 L 353.796875 267.175781 L 353.917969 266.933594 L 354.035156 266.574219 L 355.476562 265.136719 L 355.835938 265.015625 L 356.074219 264.898438 L 356.671875 264.65625 L 356.914062 264.539062 L 357.394531 264.417969 L 357.992188 264.296875 L 358.710938 264.296875 L 359.308594 264.417969 L 360.03125 264.65625 L 361.226562 265.136719 L 362.1875 266.097656 L 362.546875 266.574219 L 362.90625 267.175781 L 363.144531 267.773438 L 363.386719 268.492188 L 363.386719 270.410156 L 363.503906 270.53125 L 364.945312 272.089844 L 366.382812 273.527344 L 366.621094 273.648438 L 366.742188 273.886719 L 367.101562 274.367188 L 367.339844 274.847656 L 367.339844 275.085938 L 367.460938 275.445312 L 367.460938 293.304688 L 367.339844 293.425781 L 367.339844 293.902344 L 367.222656 294.023438 L 367.101562 294.382812 L 366.742188 294.863281 L 359.308594 302.292969 L 359.191406 302.535156 L 359.191406 302.65625 L 366.023438 309.488281 L 366.261719 309.605469 L 379.207031 309.605469 L 379.328125 309.488281 L 379.328125 309.246094 L 379.207031 309.007812 L 370.21875 300.015625 L 369.859375 299.539062 L 369.738281 299.179688 L 369.738281 299.058594 L 369.617188 298.820312 L 369.617188 276.644531 L 369.859375 275.925781 L 369.859375 275.804688 L 370.21875 275.445312 L 370.335938 275.207031 L 370.578125 275.085938 L 374.054688 271.488281 L 377.769531 267.773438 L 378.726562 267.292969 L 379.207031 267.175781 L 380.167969 267.175781 L 380.285156 266.933594 L 380.285156 266.574219 L 380.167969 266.574219 L 379.566406 265.976562 L 379.328125 265.617188 L 379.207031 265.496094 L 378.96875 265.015625 L 378.847656 264.417969 L 378.726562 263.9375 L 378.726562 262.980469 L 378.847656 262.738281 L 378.96875 262.140625 L 379.207031 261.78125 L 379.207031 261.660156 L 379.328125 261.660156 L 379.566406 261.183594 L 380.527344 260.460938 L 380.644531 260.34375 L 381.003906 260.222656 L 381.484375 259.984375 L 383.28125 259.984375 L 383.761719 260.222656 L 384.363281 260.460938 L 384.839844 260.820312 L 384.960938 260.941406 L 389.15625 260.941406 L 389.394531 260.820312 L 389.753906 260.582031 L 390.714844 260.101562 L 391.195312 260.101562 L 391.3125 259.984375 L 391.433594 259.984375 L 392.992188 258.304688 L 393.472656 257.824219 L 393.472656 257.585938 L 393.351562 257.585938 L 393.351562 257.464844 L 393.230469 257.464844 L 393.113281 257.347656 L 341.808594 257.347656 Z M 341.691406 257.464844 "/>
<path fill-rule="nonzero" fill="rgb(0%, 0%, 0%)" fill-opacity="1" d="M 386.640625 280.480469 L 386.640625 280.597656 L 385.320312 281.796875 L 385.199219 282.039062 L 385.199219 289.949219 L 385.320312 290.070312 L 385.558594 290.429688 L 385.800781 290.90625 L 386.039062 291.507812 L 386.039062 293.183594 L 385.800781 293.785156 L 385.558594 294.265625 L 384.839844 295.222656 L 384.363281 295.582031 L 384.121094 295.820312 L 384.242188 296.0625 L 384.363281 296.183594 L 384.839844 296.421875 L 385.558594 297.378906 L 385.800781 297.859375 L 386.039062 298.460938 L 386.039062 300.136719 L 385.800781 300.738281 L 385.679688 301.097656 L 385.558594 301.214844 L 385.199219 301.695312 L 384.839844 302.054688 L 384.363281 302.414062 L 384.121094 302.535156 L 383.761719 302.65625 L 383.644531 302.773438 L 383.28125 302.894531 L 383.042969 302.894531 L 382.683594 303.015625 L 382.085938 303.015625 L 381.484375 302.894531 L 381.367188 302.773438 L 381.125 302.773438 L 381.003906 302.894531 L 380.886719 303.132812 L 380.886719 303.253906 L 381.84375 304.210938 L 386.757812 304.210938 L 386.878906 304.09375 L 387 304.09375 L 388.796875 302.292969 L 388.917969 302.054688 L 388.917969 301.816406 L 388.796875 301.695312 L 388.4375 301.214844 L 388.199219 300.617188 L 387.957031 300.136719 L 387.835938 299.539062 L 387.835938 298.9375 L 387.957031 298.699219 L 387.957031 298.339844 L 388.078125 297.980469 L 388.199219 297.859375 L 388.316406 297.5 L 388.4375 297.378906 L 388.558594 297.140625 L 388.675781 297.019531 L 388.675781 294.625 L 388.4375 294.382812 L 388.199219 293.902344 L 388.078125 293.304688 L 387.957031 292.824219 L 387.957031 292.226562 L 388.078125 291.746094 L 388.078125 291.625 L 388.199219 291.265625 L 388.199219 291.027344 L 388.316406 290.90625 L 388.4375 290.546875 L 388.558594 290.429688 L 388.796875 290.070312 L 389.753906 289.347656 L 389.875 289.230469 L 390.234375 289.109375 L 390.714844 288.871094 L 391.195312 288.871094 L 391.195312 288.75 L 391.433594 288.75 L 391.671875 288.390625 L 392.152344 288.03125 L 392.511719 287.671875 L 392.753906 287.671875 L 392.871094 287.550781 L 393.113281 287.550781 L 393.351562 287.433594 L 403.660156 287.433594 L 403.898438 287.3125 L 404.019531 287.191406 L 404.019531 286.832031 L 403.058594 285.992188 L 402.941406 285.875 L 401.980469 285.632812 L 401.382812 285.273438 L 401.144531 285.035156 L 399.34375 285.035156 L 399.105469 284.914062 L 398.867188 284.914062 L 398.746094 284.792969 L 398.386719 284.675781 L 397.90625 284.433594 L 393.949219 280.480469 Z M 386.640625 280.480469 "/>
<path fill-rule="nonzero" fill="rgb(0%, 0%, 0%)" fill-opacity="1" d="M 405.21875 299.539062 L 405.097656 299.539062 L 404.738281 299.777344 L 404.617188 299.777344 L 404.257812 299.898438 L 404.140625 299.898438 L 403.78125 300.015625 L 400.542969 303.253906 L 400.542969 303.492188 L 400.78125 303.734375 L 408.453125 303.734375 L 408.574219 303.613281 L 408.695312 303.613281 L 408.695312 303.375 L 408.8125 303.375 L 408.695312 303.375 L 408.8125 303.253906 L 408.695312 303.253906 L 408.695312 303.132812 L 405.816406 300.257812 L 405.699219 299.898438 L 405.457031 299.65625 L 405.457031 299.539062 Z M 405.21875 299.539062 "/>
<path fill-rule="nonzero" fill="rgb(0%, 0%, 0%)" fill-opacity="1" d="M 375.011719 296.183594 L 374.894531 296.300781 L 374.894531 296.542969 L 374.773438 296.542969 L 374.773438 297.140625 L 374.894531 297.261719 L 374.894531 297.378906 L 378.25 300.738281 L 378.609375 300.738281 L 378.847656 300.617188 L 378.847656 300.015625 L 378.609375 299.539062 L 375.253906 296.183594 Z M 375.011719 296.183594 "/>
<path fill-rule="nonzero" fill="rgb(0%, 0%, 0%)" fill-opacity="1" d="M 357.152344 288.75 L 350.800781 295.101562 L 350.679688 295.34375 L 350.679688 298.578125 L 350.800781 298.699219 L 350.921875 298.9375 L 351.28125 299.179688 L 351.519531 299.417969 L 351.640625 299.898438 L 351.757812 300.015625 L 352.238281 300.015625 L 352.597656 299.65625 L 353.078125 299.296875 L 353.558594 299.058594 L 354.15625 298.820312 L 354.636719 298.820312 L 354.753906 298.699219 L 354.996094 298.699219 L 361.585938 291.988281 L 361.707031 291.746094 L 361.707031 288.871094 L 361.585938 288.75 Z M 357.152344 288.75 "/>
<path fill-rule="nonzero" fill="rgb(0%, 0%, 0%)" fill-opacity="1" d="M 395.390625 293.066406 L 395.269531 293.304688 L 395.03125 293.90625 L 394.910156 294.265625 L 394.789062 294.382812 L 394.429688 294.863281 L 394.429688 297.019531 L 394.671875 297.378906 L 395.03125 297.859375 L 395.148438 298.339844 L 395.269531 298.9375 L 395.269531 299.777344 L 395.390625 299.898438 L 395.867188 299.898438 L 399.585938 296.0625 L 399.703125 295.941406 L 399.824219 295.460938 L 399.824219 295.222656 L 400.0625 294.742188 L 400.183594 294.382812 L 400.304688 294.265625 L 400.542969 293.90625 L 400.902344 293.542969 L 400.902344 293.304688 L 400.664062 293.066406 Z M 395.390625 293.066406 "/>
<path fill-rule="nonzero" fill="rgb(0%, 0%, 0%)" fill-opacity="1" d="M 465.628906 294.742188 L 465.507812 294.863281 L 465.390625 295.101562 L 465.269531 295.222656 L 465.269531 295.460938 L 465.148438 295.703125 L 464.789062 296.183594 L 464.308594 296.542969 L 463.949219 296.902344 L 463.589844 297.019531 L 463.472656 297.140625 L 463.351562 297.378906 L 463.832031 297.859375 L 464.191406 298.097656 L 469.824219 298.097656 L 469.824219 297.980469 L 471.503906 296.421875 L 471.621094 296.183594 L 471.742188 295.703125 L 471.742188 295.582031 L 471.863281 295.222656 L 471.863281 295.101562 L 471.980469 294.984375 L 471.863281 294.742188 L 471.742188 294.625 L 465.75 294.625 Z M 465.628906 294.742188 "/>
<path fill-rule="nonzero" fill="rgb(0%, 0%, 0%)" fill-opacity="1" d="M 411.449219 285.753906 L 411.332031 285.992188 L 411.332031 286.113281 L 415.167969 289.949219 L 415.527344 290.429688 L 415.644531 290.667969 L 415.765625 291.027344 L 415.765625 293.90625 L 415.886719 294.023438 L 416.125 294.382812 L 416.367188 294.984375 L 416.605469 295.460938 L 416.726562 296.0625 L 416.726562 296.660156 L 416.605469 296.902344 L 416.605469 297.019531 L 416.726562 297.140625 L 416.964844 297.261719 L 417.203125 297.140625 L 418.523438 295.820312 L 418.644531 295.582031 L 418.882812 294.863281 L 418.882812 294.625 L 419.121094 294.144531 L 419.480469 293.785156 L 419.480469 292.707031 L 412.769531 285.992188 L 412.53125 285.875 L 411.808594 285.632812 L 411.570312 285.632812 Z M 411.449219 285.753906 "/>
<path fill-rule="nonzero" fill="rgb(0%, 0%, 0%)" fill-opacity="1" d="M 456.28125 292.105469 L 456.039062 292.347656 L 456.039062 292.464844 L 456.160156 292.824219 L 456.28125 293.304688 L 456.28125 294.023438 L 456.160156 294.625 L 456.28125 294.742188 L 456.398438 294.984375 L 456.757812 294.984375 L 456.757812 294.863281 L 457.957031 293.664062 L 457.957031 293.425781 L 456.640625 292.105469 Z M 456.28125 292.105469 "/>
<path fill-rule="nonzero" fill="rgb(0%, 0%, 0%)" fill-opacity="1" d="M 443.695312 280.238281 L 443.574219 280.359375 L 443.574219 280.597656 L 443.695312 280.71875 L 443.695312 280.839844 L 452.921875 289.949219 L 453.042969 290.070312 L 453.523438 290.1875 L 453.882812 290.308594 L 454.003906 290.308594 L 454.242188 290.1875 L 454.363281 289.949219 L 454.242188 289.828125 L 454.242188 289.710938 L 444.773438 280.238281 Z M 443.695312 280.238281 "/>
<path fill-rule="nonzero" fill="rgb(0%, 0%, 0%)" fill-opacity="1" d="M 409.054688 280.597656 L 408.933594 280.597656 L 407.617188 281.917969 L 407.496094 282.15625 L 407.496094 282.277344 L 409.054688 283.835938 L 409.292969 283.835938 L 409.414062 283.714844 L 409.53125 283.476562 L 409.53125 283.355469 L 409.414062 282.996094 L 409.292969 282.515625 L 409.292969 281.917969 L 409.414062 281.320312 L 409.53125 280.960938 L 409.53125 280.839844 L 409.414062 280.597656 L 409.171875 280.480469 Z M 409.054688 280.597656 "/>
<path fill-rule="nonzero" fill="rgb(0%, 0%, 0%)" fill-opacity="1" d="M 398.625 276.523438 L 398.503906 276.765625 L 398.503906 276.882812 L 398.625 277.125 L 400.664062 279.160156 L 400.902344 279.28125 L 401.144531 279.28125 L 401.382812 279.042969 L 401.980469 278.800781 L 402.460938 278.5625 L 402.941406 278.5625 L 404.378906 277.125 L 404.378906 276.882812 L 404.257812 276.765625 L 404.019531 276.644531 L 399.585938 276.644531 L 399.226562 276.523438 Z M 398.625 276.523438 "/>
<path fill-rule="nonzero" fill="rgb(0%, 0%, 0%)" fill-opacity="1" d="M 425.355469 262.980469 L 425.234375 263.21875 L 425.234375 263.578125 L 425.355469 263.578125 L 425.476562 263.699219 L 425.714844 264.058594 L 425.835938 264.417969 L 425.835938 268.015625 L 425.714844 268.375 L 425.59375 268.613281 L 425.714844 268.734375 L 425.714844 268.972656 L 425.835938 269.570312 L 425.835938 270.050781 L 425.714844 270.652344 L 426.074219 271.011719 L 428.710938 271.011719 L 428.710938 270.890625 L 431.109375 268.492188 L 431.109375 267.414062 L 430.988281 267.292969 L 430.75 266.933594 L 430.507812 266.335938 L 430.390625 265.855469 L 430.269531 265.257812 L 430.269531 264.65625 L 430.390625 264.058594 L 430.390625 263.820312 L 430.507812 263.578125 L 430.507812 263.460938 L 430.628906 263.339844 L 430.507812 263.097656 L 430.390625 262.980469 Z M 425.355469 262.980469 "/>
<path fill-rule="nonzero" fill="rgb(0%, 0%, 0%)" fill-opacity="1" d="M 396.347656 262.980469 L 395.390625 263.9375 L 395.269531 264.179688 L 395.269531 264.539062 L 395.03125 265.136719 L 394.789062 265.617188 L 394.070312 266.574219 L 393.949219 266.574219 L 393.832031 266.695312 L 393.832031 266.933594 L 393.949219 267.054688 L 394.191406 267.175781 L 400.542969 267.175781 L 400.664062 266.933594 L 400.664062 265.976562 L 400.78125 265.375 L 401.023438 264.777344 L 401.261719 264.417969 L 401.742188 263.9375 L 402.222656 263.578125 L 402.339844 263.460938 L 402.339844 263.097656 L 402.101562 262.980469 Z M 396.347656 262.980469 "/>
<path fill-rule="nonzero" fill="rgb(0%, 0%, 0%)" fill-opacity="1" d="M 408.335938 262.980469 L 408.214844 263.21875 L 408.214844 263.339844 L 408.335938 263.578125 L 410.972656 266.214844 L 411.449219 266.214844 L 411.449219 266.097656 L 414.085938 263.460938 L 414.085938 263.21875 L 413.96875 263.097656 L 413.726562 262.980469 Z M 408.335938 262.980469 "/>
<path fill="none" stroke-width="3.84" stroke-linecap="round" stroke-linejoin="round" stroke="rgb(0%, 0%, 0%)" stroke-opacity="1" stroke-miterlimit="10" d="M 524.161939 442.082503 L 522.08144 439.840362 " transform="matrix(0.749144, 0, 0, 0.749144, 0.440349, 0.00000299658)"/>
<path fill="none" stroke-width="3.84" stroke-linecap="round" stroke-linejoin="round" stroke="rgb(0%, 0%, 0%)" stroke-opacity="1" stroke-miterlimit="10" d="M 522.08144 437.921506 L 525.121367 437.921506 " transform="matrix(0.749144, 0, 0, 0.749144, 0.440349, 0.00000299658)"/>
<path fill="none" stroke-width="3.84" stroke-linecap="round" stroke-linejoin="round" stroke="rgb(0%, 0%, 0%)" stroke-opacity="1" stroke-miterlimit="10" d="M 528.797436 446.561572 L 524.161939 442.082503 " transform="matrix(0.749144, 0, 0, 0.749144, 0.440349, 0.00000299658)"/>
<path fill="none" stroke-width="3.84" stroke-linecap="round" stroke-linejoin="round" stroke="rgb(0%, 0%, 0%)" stroke-opacity="1" stroke-miterlimit="10" d="M 522.08144 439.840362 L 522.08144 437.921506 " transform="matrix(0.749144, 0, 0, 0.749144, 0.440349, 0.00000299658)"/>
<path fill="none" stroke-width="3.84" stroke-linecap="round" stroke-linejoin="round" stroke="rgb(0%, 0%, 0%)" stroke-opacity="1" stroke-miterlimit="10" d="M 525.121367 437.921506 L 525.121367 441.117861 " transform="matrix(0.749144, 0, 0, 0.749144, 0.440349, 0.00000299658)"/>
<path fill="none" stroke-width="3.84" stroke-linecap="round" stroke-linejoin="round" stroke="rgb(0%, 0%, 0%)" stroke-opacity="1" stroke-miterlimit="10" d="M 525.121367 441.117861 L 524.161939 442.082503 " transform="matrix(0.749144, 0, 0, 0.749144, 0.440349, 0.00000299658)"/>
<path fill="none" stroke-width="3.84" stroke-linecap="round" stroke-linejoin="round" stroke="rgb(0%, 0%, 0%)" stroke-opacity="1" stroke-miterlimit="10" d="M 540.639071 387.358609 L 525.277795 387.358609 " transform="matrix(0.749144, 0, 0, 0.749144, 0.440349, 0.00000299658)"/>
<path fill="none" stroke-width="3.84" stroke-linecap="round" stroke-linejoin="round" stroke="rgb(0%, 0%, 0%)" stroke-opacity="1" stroke-miterlimit="10" d="M 522.08144 390.560178 L 522.237868 390.398536 " transform="matrix(0.749144, 0, 0, 0.749144, 0.440349, 0.00000299658)"/>
<path fill="none" stroke-width="3.84" stroke-linecap="round" stroke-linejoin="round" stroke="rgb(0%, 0%, 0%)" stroke-opacity="1" stroke-miterlimit="10" d="M 544.320355 391.039892 L 540.639071 387.358609 " transform="matrix(0.749144, 0, 0, 0.749144, 0.440349, 0.00000299658)"/>
<path fill="none" stroke-width="3.84" stroke-linecap="round" stroke-linejoin="round" stroke="rgb(0%, 0%, 0%)" stroke-opacity="1" stroke-miterlimit="10" d="M 525.277795 387.358609 L 522.237868 390.398536 " transform="matrix(0.749144, 0, 0, 0.749144, 0.440349, 0.00000299658)"/>
<path fill="none" stroke-width="3.2" stroke-linecap="round" stroke-linejoin="round" stroke="rgb(0%, 0%, 0%)" stroke-opacity="1" stroke-miterlimit="10" d="M 517.279086 409.597523 L 522.08144 404.800384 " transform="matrix(0.749144, 0, 0, 0.749144, 0.440349, 0.00000299658)"/>
<path fill="none" stroke-width="3.84" stroke-linecap="round" stroke-linejoin="round" stroke="rgb(0%, 0%, 0%)" stroke-opacity="1" stroke-miterlimit="10" d="M 522.08144 399.518316 L 522.08144 390.560178 " transform="matrix(0.749144, 0, 0, 0.749144, 0.440349, 0.00000299658)"/>
<path fill="none" stroke-width="3.84" stroke-linecap="round" stroke-linejoin="round" stroke="rgb(0%, 0%, 0%)" stroke-opacity="1" stroke-miterlimit="10" d="M 537.760787 395.518961 L 516.319658 417.121733 " transform="matrix(0.749144, 0, 0, 0.749144, 0.440349, 0.00000299658)"/>
<path fill="none" stroke-width="3.2" stroke-linecap="round" stroke-linejoin="round" stroke="rgb(0%, 0%, 0%)" stroke-opacity="1" stroke-miterlimit="10" d="M 522.08144 404.800384 L 522.08144 399.518316 " transform="matrix(0.749144, 0, 0, 0.749144, 0.440349, 0.00000299658)"/>
<path fill="none" stroke-width="3.84" stroke-linecap="round" stroke-linejoin="round" stroke="rgb(0%, 0%, 0%)" stroke-opacity="1" stroke-miterlimit="10" d="M 536.478074 434.558293 L 539.841286 431.038653 " transform="matrix(0.749144, 0, 0, 0.749144, 0.440349, 0.00000299658)"/>
<path fill="none" stroke-width="3.84" stroke-linecap="round" stroke-linejoin="round" stroke="rgb(0%, 0%, 0%)" stroke-opacity="1" stroke-miterlimit="10" d="M 536.478074 437.59822 L 536.478074 434.558293 " transform="matrix(0.749144, 0, 0, 0.749144, 0.440349, 0.00000299658)"/>
<path fill="none" stroke-width="3.84" stroke-linecap="round" stroke-linejoin="round" stroke="rgb(0%, 0%, 0%)" stroke-opacity="1" stroke-miterlimit="10" d="M 553.122063 446.561572 L 528.797436 446.561572 " transform="matrix(0.749144, 0, 0, 0.749144, 0.440349, 0.00000299658)"/>
<path fill="none" stroke-width="3.84" stroke-linecap="round" stroke-linejoin="round" stroke="rgb(0%, 0%, 0%)" stroke-opacity="1" stroke-miterlimit="10" d="M 544.002283 437.59822 L 553.122063 446.561572 " transform="matrix(0.749144, 0, 0, 0.749144, 0.440349, 0.00000299658)"/>
<path fill="none" stroke-width="3.84" stroke-linecap="round" stroke-linejoin="round" stroke="rgb(0%, 0%, 0%)" stroke-opacity="1" stroke-miterlimit="10" d="M 548.481352 431.038653 L 553.758206 436.320721 " transform="matrix(0.749144, 0, 0, 0.749144, 0.440349, 0.00000299658)"/>
<path fill="none" stroke-width="3.84" stroke-linecap="round" stroke-linejoin="round" stroke="rgb(0%, 0%, 0%)" stroke-opacity="1" stroke-miterlimit="10" d="M 539.841286 431.038653 L 548.481352 431.038653 " transform="matrix(0.749144, 0, 0, 0.749144, 0.440349, 0.00000299658)"/>
<path fill="none" stroke-width="3.84" stroke-linecap="round" stroke-linejoin="round" stroke="rgb(0%, 0%, 0%)" stroke-opacity="1" stroke-miterlimit="10" d="M 549.602423 409.11781 L 532.958433 409.11781 " transform="matrix(0.749144, 0, 0, 0.749144, 0.440349, 0.00000299658)"/>
<path fill="none" stroke-width="3.84" stroke-linecap="round" stroke-linejoin="round" stroke="rgb(0%, 0%, 0%)" stroke-opacity="1" stroke-miterlimit="10" d="M 525.121367 437.921506 L 544.638426 418.399232 " transform="matrix(0.749144, 0, 0, 0.749144, 0.440349, 0.00000299658)"/>
<path fill="none" stroke-width="3.84" stroke-linecap="round" stroke-linejoin="round" stroke="rgb(0%, 0%, 0%)" stroke-opacity="1" stroke-miterlimit="10" d="M 544.638426 418.399232 L 544.638426 415.520948 " transform="matrix(0.749144, 0, 0, 0.749144, 0.440349, 0.00000299658)"/>
<path fill="none" stroke-width="3.84" stroke-linecap="round" stroke-linejoin="round" stroke="rgb(0%, 0%, 0%)" stroke-opacity="1" stroke-miterlimit="10" d="M 518.879871 428.801726 L 523.838653 428.801726 " transform="matrix(0.749144, 0, 0, 0.749144, 0.440349, 0.00000299658)"/>
<path fill="none" stroke-width="3.84" stroke-linecap="round" stroke-linejoin="round" stroke="rgb(0%, 0%, 0%)" stroke-opacity="1" stroke-miterlimit="10" d="M 537.11943 415.520948 L 523.838653 428.801726 " transform="matrix(0.749144, 0, 0, 0.749144, 0.440349, 0.00000299658)"/>
<path fill="none" stroke-width="3.84" stroke-linecap="round" stroke-linejoin="round" stroke="rgb(0%, 0%, 0%)" stroke-opacity="1" stroke-miterlimit="10" d="M 532.958433 409.11781 L 519.677656 422.398587 " transform="matrix(0.749144, 0, 0, 0.749144, 0.440349, 0.00000299658)"/>
<path fill="none" stroke-width="3.84" stroke-linecap="round" stroke-linejoin="round" stroke="rgb(0%, 0%, 0%)" stroke-opacity="1" stroke-miterlimit="10" d="M 544.320355 398.558888 L 544.320355 391.039892 " transform="matrix(0.749144, 0, 0, 0.749144, 0.440349, 0.00000299658)"/>
<path fill="none" stroke-width="3.84" stroke-linecap="round" stroke-linejoin="round" stroke="rgb(0%, 0%, 0%)" stroke-opacity="1" stroke-miterlimit="10" d="M 547.678352 401.9221 L 544.320355 398.558888 " transform="matrix(0.749144, 0, 0, 0.749144, 0.440349, 0.00000299658)"/>
<path fill="none" stroke-width="3.84" stroke-linecap="round" stroke-linejoin="round" stroke="rgb(0%, 0%, 0%)" stroke-opacity="1" stroke-miterlimit="10" d="M 550.718279 395.518961 L 550.718279 389.60075 " transform="matrix(0.749144, 0, 0, 0.749144, 0.440349, 0.00000299658)"/>
<path fill="none" stroke-width="3.84" stroke-linecap="round" stroke-linejoin="round" stroke="rgb(0%, 0%, 0%)" stroke-opacity="1" stroke-miterlimit="10" d="M 556.318418 401.9221 L 547.678352 401.9221 " transform="matrix(0.749144, 0, 0, 0.749144, 0.440349, 0.00000299658)"/>
<path fill="none" stroke-width="3.84" stroke-linecap="round" stroke-linejoin="round" stroke="rgb(0%, 0%, 0%)" stroke-opacity="1" stroke-miterlimit="10" d="M 622.080948 359.681198 L 616.001095 353.757773 " transform="matrix(0.749144, 0, 0, 0.749144, 0.440349, 0.00000299658)"/>
<path fill="none" stroke-width="3.84" stroke-linecap="round" stroke-linejoin="round" stroke="rgb(0%, 0%, 0%)" stroke-opacity="1" stroke-miterlimit="10" d="M 618.717736 389.439108 L 616.001095 392.160963 " transform="matrix(0.749144, 0, 0, 0.749144, 0.440349, 0.00000299658)"/>
<path fill="none" stroke-width="3.84" stroke-linecap="round" stroke-linejoin="round" stroke="rgb(0%, 0%, 0%)" stroke-opacity="1" stroke-miterlimit="10" d="M 603.679746 392.160963 L 587.838756 376.319973 " transform="matrix(0.749144, 0, 0, 0.749144, 0.440349, 0.00000299658)"/>
<path fill="none" stroke-width="3.84" stroke-linecap="round" stroke-linejoin="round" stroke="rgb(0%, 0%, 0%)" stroke-opacity="1" stroke-miterlimit="10" d="M 603.679746 353.757773 L 597.120178 347.198206 " transform="matrix(0.749144, 0, 0, 0.749144, 0.440349, 0.00000299658)"/>
<path fill="none" stroke-width="3.84" stroke-linecap="round" stroke-linejoin="round" stroke="rgb(0%, 0%, 0%)" stroke-opacity="1" stroke-miterlimit="10" d="M 616.001095 353.757773 L 603.679746 353.757773 " transform="matrix(0.749144, 0, 0, 0.749144, 0.440349, 0.00000299658)"/>
<path fill="none" stroke-width="3.2" stroke-linecap="round" stroke-linejoin="round" stroke="rgb(0%, 0%, 0%)" stroke-opacity="1" stroke-miterlimit="10" d="M 594.559966 370.558191 L 616.001095 392.160963 " transform="matrix(0.749144, 0, 0, 0.749144, 0.440349, 0.00000299658)"/>
<path fill="none" stroke-width="3.84" stroke-linecap="round" stroke-linejoin="round" stroke="rgb(0%, 0%, 0%)" stroke-opacity="1" stroke-miterlimit="10" d="M 591.201968 412.63745 L 591.201968 392.160963 " transform="matrix(0.749144, 0, 0, 0.749144, 0.440349, 0.00000299658)"/>
<path fill="none" stroke-width="3.84" stroke-linecap="round" stroke-linejoin="round" stroke="rgb(0%, 0%, 0%)" stroke-opacity="1" stroke-miterlimit="10" d="M 616.001095 401.760457 L 627.999159 401.760457 " transform="matrix(0.749144, 0, 0, 0.749144, 0.440349, 0.00000299658)"/>
<path fill="none" stroke-width="3.84" stroke-linecap="round" stroke-linejoin="round" stroke="rgb(0%, 0%, 0%)" stroke-opacity="1" stroke-miterlimit="10" d="M 606.401601 401.760457 L 616.001095 392.160963 " transform="matrix(0.749144, 0, 0, 0.749144, 0.440349, 0.00000299658)"/>
<path fill="none" stroke-width="3.84" stroke-linecap="round" stroke-linejoin="round" stroke="rgb(0%, 0%, 0%)" stroke-opacity="1" stroke-miterlimit="10" d="M 595.357751 416.798448 L 591.201968 412.63745 " transform="matrix(0.749144, 0, 0, 0.749144, 0.440349, 0.00000299658)"/>
<path fill="none" stroke-width="3.84" stroke-linecap="round" stroke-linejoin="round" stroke="rgb(0%, 0%, 0%)" stroke-opacity="1" stroke-miterlimit="10" d="M 603.679746 401.760457 L 606.401601 401.760457 " transform="matrix(0.749144, 0, 0, 0.749144, 0.440349, 0.00000299658)"/>
<path fill="none" stroke-width="3.84" stroke-linecap="round" stroke-linejoin="round" stroke="rgb(0%, 0%, 0%)" stroke-opacity="1" stroke-miterlimit="10" d="M 646.238719 389.439108 L 618.717736 389.439108 " transform="matrix(0.749144, 0, 0, 0.749144, 0.440349, 0.00000299658)"/>
<path fill="none" stroke-width="3.84" stroke-linecap="round" stroke-linejoin="round" stroke="rgb(0%, 0%, 0%)" stroke-opacity="1" stroke-miterlimit="10" d="M 627.999159 401.760457 L 633.760941 395.998675 " transform="matrix(0.749144, 0, 0, 0.749144, 0.440349, 0.00000299658)"/>
<path fill="none" stroke-width="3.84" stroke-linecap="round" stroke-linejoin="round" stroke="rgb(0%, 0%, 0%)" stroke-opacity="1" stroke-miterlimit="10" d="M 652.798286 395.998675 L 646.238719 389.439108 " transform="matrix(0.749144, 0, 0, 0.749144, 0.440349, 0.00000299658)"/>
<path fill="none" stroke-width="3.84" stroke-linecap="round" stroke-linejoin="round" stroke="rgb(0%, 0%, 0%)" stroke-opacity="1" stroke-miterlimit="10" d="M 659.201425 419.838374 L 659.201425 391.681249 " transform="matrix(0.749144, 0, 0, 0.749144, 0.440349, 0.00000299658)"/>
<path fill="none" stroke-width="3.84" stroke-linecap="round" stroke-linejoin="round" stroke="rgb(0%, 0%, 0%)" stroke-opacity="1" stroke-miterlimit="10" d="M 659.201425 391.681249 L 645.920648 378.562114 " transform="matrix(0.749144, 0, 0, 0.749144, 0.440349, 0.00000299658)"/>
<path fill="none" stroke-width="3.84" stroke-linecap="round" stroke-linejoin="round" stroke="rgb(0%, 0%, 0%)" stroke-opacity="1" stroke-miterlimit="10" d="M 645.920648 359.681198 L 622.080948 359.681198 " transform="matrix(0.749144, 0, 0, 0.749144, 0.440349, 0.00000299658)"/>
<path fill="none" stroke-width="3.84" stroke-linecap="round" stroke-linejoin="round" stroke="rgb(0%, 0%, 0%)" stroke-opacity="1" stroke-miterlimit="10" d="M 576.80012 436.320721 L 589.277898 436.320721 " transform="matrix(0.749144, 0, 0, 0.749144, 0.440349, 0.00000299658)"/>
<path fill="none" stroke-width="3.84" stroke-linecap="round" stroke-linejoin="round" stroke="rgb(0%, 0%, 0%)" stroke-opacity="1" stroke-miterlimit="10" d="M 589.277898 436.320721 L 595.357751 430.40251 " transform="matrix(0.749144, 0, 0, 0.749144, 0.440349, 0.00000299658)"/>
<path fill="none" stroke-width="3.84" stroke-linecap="round" stroke-linejoin="round" stroke="rgb(0%, 0%, 0%)" stroke-opacity="1" stroke-miterlimit="10" d="M 610.07767 446.561572 L 553.122063 446.561572 " transform="matrix(0.749144, 0, 0, 0.749144, 0.440349, 0.00000299658)"/>
<path fill="none" stroke-width="3.84" stroke-linecap="round" stroke-linejoin="round" stroke="rgb(0%, 0%, 0%)" stroke-opacity="1" stroke-miterlimit="10" d="M 610.07767 446.561572 L 603.679746 440.158433 " transform="matrix(0.749144, 0, 0, 0.749144, 0.440349, 0.00000299658)"/>
<path fill="none" stroke-width="3.84" stroke-linecap="round" stroke-linejoin="round" stroke="rgb(0%, 0%, 0%)" stroke-opacity="1" stroke-miterlimit="10" d="M 553.758206 436.320721 L 576.80012 436.320721 " transform="matrix(0.749144, 0, 0, 0.749144, 0.440349, 0.00000299658)"/>
<path fill="none" stroke-width="3.84" stroke-linecap="round" stroke-linejoin="round" stroke="rgb(0%, 0%, 0%)" stroke-opacity="1" stroke-miterlimit="10" d="M 618.717736 441.279504 L 617.122166 441.279504 " transform="matrix(0.749144, 0, 0, 0.749144, 0.440349, 0.00000299658)"/>
<path fill="none" stroke-width="3.84" stroke-linecap="round" stroke-linejoin="round" stroke="rgb(0%, 0%, 0%)" stroke-opacity="1" stroke-miterlimit="10" d="M 617.122166 441.279504 L 616.001095 440.158433 " transform="matrix(0.749144, 0, 0, 0.749144, 0.440349, 0.00000299658)"/>
<path fill="none" stroke-width="3.84" stroke-linecap="round" stroke-linejoin="round" stroke="rgb(0%, 0%, 0%)" stroke-opacity="1" stroke-miterlimit="10" d="M 645.759005 433.119152 L 632.321799 446.561572 " transform="matrix(0.749144, 0, 0, 0.749144, 0.440349, 0.00000299658)"/>
<path fill="none" stroke-width="3.84" stroke-linecap="round" stroke-linejoin="round" stroke="rgb(0%, 0%, 0%)" stroke-opacity="1" stroke-miterlimit="10" d="M 632.321799 446.561572 L 610.07767 446.561572 " transform="matrix(0.749144, 0, 0, 0.749144, 0.440349, 0.00000299658)"/>
<path fill="none" stroke-width="3.84" stroke-linecap="round" stroke-linejoin="round" stroke="rgb(0%, 0%, 0%)" stroke-opacity="1" stroke-miterlimit="10" d="M 645.759005 414.238235 L 618.717736 441.279504 " transform="matrix(0.749144, 0, 0, 0.749144, 0.440349, 0.00000299658)"/>
<path fill="none" stroke-width="3.84" stroke-linecap="round" stroke-linejoin="round" stroke="rgb(0%, 0%, 0%)" stroke-opacity="1" stroke-miterlimit="10" d="M 645.759005 433.119152 L 659.201425 419.838374 " transform="matrix(0.749144, 0, 0, 0.749144, 0.440349, 0.00000299658)"/>
<path fill="none" stroke-width="3.84" stroke-linecap="round" stroke-linejoin="round" stroke="rgb(0%, 0%, 0%)" stroke-opacity="1" stroke-miterlimit="10" d="M 565.120127 424.640728 L 576.80012 436.320721 " transform="matrix(0.749144, 0, 0, 0.749144, 0.440349, 0.00000299658)"/>
<path fill="none" stroke-width="3.84" stroke-linecap="round" stroke-linejoin="round" stroke="rgb(0%, 0%, 0%)" stroke-opacity="1" stroke-miterlimit="10" d="M 595.357751 430.40251 L 595.357751 416.798448 " transform="matrix(0.749144, 0, 0, 0.749144, 0.440349, 0.00000299658)"/>
<path fill="none" stroke-width="3.84" stroke-linecap="round" stroke-linejoin="round" stroke="rgb(0%, 0%, 0%)" stroke-opacity="1" stroke-miterlimit="10" d="M 578.718976 419.202232 L 584.001044 424.640728 " transform="matrix(0.749144, 0, 0, 0.749144, 0.440349, 0.00000299658)"/>
<path fill="none" stroke-width="3.84" stroke-linecap="round" stroke-linejoin="round" stroke="rgb(0%, 0%, 0%)" stroke-opacity="1" stroke-miterlimit="10" d="M 565.120127 424.640728 L 549.602423 409.11781 " transform="matrix(0.749144, 0, 0, 0.749144, 0.440349, 0.00000299658)"/>
<path fill="none" stroke-width="3.84" stroke-linecap="round" stroke-linejoin="round" stroke="rgb(0%, 0%, 0%)" stroke-opacity="1" stroke-miterlimit="10" d="M 578.718976 392.160963 L 578.718976 419.202232 " transform="matrix(0.749144, 0, 0, 0.749144, 0.440349, 0.00000299658)"/>
<path fill="none" stroke-width="3.84" stroke-linecap="round" stroke-linejoin="round" stroke="rgb(0%, 0%, 0%)" stroke-opacity="1" stroke-miterlimit="10" d="M 563.201271 395.20089 L 563.201271 389.121036 " transform="matrix(0.749144, 0, 0, 0.749144, 0.440349, 0.00000299658)"/>
<path fill="none" stroke-width="3.84" stroke-linecap="round" stroke-linejoin="round" stroke="rgb(0%, 0%, 0%)" stroke-opacity="1" stroke-miterlimit="10" d="M 563.201271 395.20089 L 556.318418 401.9221 " transform="matrix(0.749144, 0, 0, 0.749144, 0.440349, 0.00000299658)"/>
<path fill="none" stroke-width="3.2" stroke-linecap="round" stroke-linejoin="round" stroke="rgb(0%, 0%, 0%)" stroke-opacity="1" stroke-miterlimit="10" d="M 508.320949 409.597523 L 517.279086 409.597523 " transform="matrix(0.749144, 0, 0, 0.749144, 0.440349, 0.00000299658)"/>
<path fill="none" stroke-width="3.2" stroke-linecap="round" stroke-linejoin="round" stroke="rgb(0%, 0%, 0%)" stroke-opacity="1" stroke-miterlimit="10" d="M 496.31767 398.240816 L 507.997663 409.920809 " transform="matrix(0.749144, 0, 0, 0.749144, 0.440349, 0.00000299658)"/>
<path fill="none" stroke-width="3.2" stroke-linecap="round" stroke-linejoin="round" stroke="rgb(0%, 0%, 0%)" stroke-opacity="1" stroke-miterlimit="10" d="M 507.997663 409.920809 L 508.320949 409.597523 " transform="matrix(0.749144, 0, 0, 0.749144, 0.440349, 0.00000299658)"/>
<path fill="none" stroke-width="3.84" stroke-linecap="round" stroke-linejoin="round" stroke="rgb(0%, 0%, 0%)" stroke-opacity="1" stroke-miterlimit="10" d="M 509.921733 399.518316 L 503.362166 393.120391 " transform="matrix(0.749144, 0, 0, 0.749144, 0.440349, 0.00000299658)"/>
<path fill="none" stroke-width="3.84" stroke-linecap="round" stroke-linejoin="round" stroke="rgb(0%, 0%, 0%)" stroke-opacity="1" stroke-miterlimit="10" d="M 463.681477 403.840956 L 463.681477 392.479034 " transform="matrix(0.749144, 0, 0, 0.749144, 0.440349, 0.00000299658)"/>
<path fill="none" stroke-width="3.84" stroke-linecap="round" stroke-linejoin="round" stroke="rgb(0%, 0%, 0%)" stroke-opacity="1" stroke-miterlimit="10" d="M 463.681477 392.479034 L 477.760039 378.562114 " transform="matrix(0.749144, 0, 0, 0.749144, 0.440349, 0.00000299658)"/>
<path fill="none" stroke-width="3.84" stroke-linecap="round" stroke-linejoin="round" stroke="rgb(0%, 0%, 0%)" stroke-opacity="1" stroke-miterlimit="10" d="M 473.280971 403.840956 L 486.082034 391.201535 " transform="matrix(0.749144, 0, 0, 0.749144, 0.440349, 0.00000299658)"/>
<path fill="none" stroke-width="3.84" stroke-linecap="round" stroke-linejoin="round" stroke="rgb(0%, 0%, 0%)" stroke-opacity="1" stroke-miterlimit="10" d="M 460.479907 424.317443 L 460.479907 407.198954 " transform="matrix(0.749144, 0, 0, 0.749144, 0.440349, 0.00000299658)"/>
<path fill="none" stroke-width="3.84" stroke-linecap="round" stroke-linejoin="round" stroke="rgb(0%, 0%, 0%)" stroke-opacity="1" stroke-miterlimit="10" d="M 460.479907 407.198954 L 463.681477 403.840956 " transform="matrix(0.749144, 0, 0, 0.749144, 0.440349, 0.00000299658)"/>
<path fill="none" stroke-width="3.84" stroke-linecap="round" stroke-linejoin="round" stroke="rgb(0%, 0%, 0%)" stroke-opacity="1" stroke-miterlimit="10" d="M 486.561748 417.121733 L 473.280971 403.840956 " transform="matrix(0.749144, 0, 0, 0.749144, 0.440349, 0.00000299658)"/>
<path fill="none" stroke-width="3.84" stroke-linecap="round" stroke-linejoin="round" stroke="rgb(0%, 0%, 0%)" stroke-opacity="1" stroke-miterlimit="10" d="M 528.797436 446.561572 L 467.201117 446.561572 " transform="matrix(0.749144, 0, 0, 0.749144, 0.440349, 0.00000299658)"/>
<path fill="none" stroke-width="3.84" stroke-linecap="round" stroke-linejoin="round" stroke="rgb(0%, 0%, 0%)" stroke-opacity="1" stroke-miterlimit="10" d="M 467.201117 446.561572 L 460.479907 440.002004 " transform="matrix(0.749144, 0, 0, 0.749144, 0.440349, 0.00000299658)"/>
<path fill="none" stroke-width="3.84" stroke-linecap="round" stroke-linejoin="round" stroke="rgb(0%, 0%, 0%)" stroke-opacity="1" stroke-miterlimit="10" d="M 460.479907 440.002004 L 460.479907 436.320721 " transform="matrix(0.749144, 0, 0, 0.749144, 0.440349, 0.00000299658)"/>
<path fill="none" stroke-width="3.84" stroke-linecap="round" stroke-linejoin="round" stroke="rgb(0%, 0%, 0%)" stroke-opacity="1" stroke-miterlimit="10" d="M 460.479907 436.320721 L 460.479907 424.317443 " transform="matrix(0.749144, 0, 0, 0.749144, 0.440349, 0.00000299658)"/>
<path fill="none" stroke-width="3.84" stroke-linecap="round" stroke-linejoin="round" stroke="rgb(0%, 0%, 0%)" stroke-opacity="1" stroke-miterlimit="10" d="M 516.319658 417.121733 L 486.561748 417.121733 " transform="matrix(0.749144, 0, 0, 0.749144, 0.440349, 0.00000299658)"/>
<path fill="none" stroke-width="3.2" stroke-linecap="round" stroke-linejoin="round" stroke="rgb(0%, 0%, 0%)" stroke-opacity="1" stroke-miterlimit="10" d="M 505.922379 360.160912 L 496.31767 369.922049 " transform="matrix(0.749144, 0, 0, 0.749144, 0.440349, 0.00000299658)"/>
<path fill="none" stroke-width="3.84" stroke-linecap="round" stroke-linejoin="round" stroke="rgb(0%, 0%, 0%)" stroke-opacity="1" stroke-miterlimit="10" d="M 509.921733 374.719188 L 509.921733 390.242107 " transform="matrix(0.749144, 0, 0, 0.749144, 0.440349, 0.00000299658)"/>
<path fill="none" stroke-width="3.84" stroke-linecap="round" stroke-linejoin="round" stroke="rgb(0%, 0%, 0%)" stroke-opacity="1" stroke-miterlimit="10" d="M 503.362166 393.120391 L 503.362166 373.75976 " transform="matrix(0.749144, 0, 0, 0.749144, 0.440349, 0.00000299658)"/>
<path fill="none" stroke-width="3.84" stroke-linecap="round" stroke-linejoin="round" stroke="rgb(0%, 0%, 0%)" stroke-opacity="1" stroke-miterlimit="10" d="M 486.082034 367.997978 L 477.760039 359.681198 " transform="matrix(0.749144, 0, 0, 0.749144, 0.440349, 0.00000299658)"/>
<path fill="none" stroke-width="3.84" stroke-linecap="round" stroke-linejoin="round" stroke="rgb(0%, 0%, 0%)" stroke-opacity="1" stroke-miterlimit="10" d="M 503.362166 373.75976 L 511.840589 365.281337 " transform="matrix(0.749144, 0, 0, 0.749144, 0.440349, 0.00000299658)"/>
<path fill="none" stroke-width="3.84" stroke-linecap="round" stroke-linejoin="round" stroke="rgb(0%, 0%, 0%)" stroke-opacity="1" stroke-miterlimit="10" d="M 486.082034 391.201535 L 486.082034 367.997978 " transform="matrix(0.749144, 0, 0, 0.749144, 0.440349, 0.00000299658)"/>
<path fill="none" stroke-width="3.2" stroke-linecap="round" stroke-linejoin="round" stroke="rgb(0%, 0%, 0%)" stroke-opacity="1" stroke-miterlimit="10" d="M 496.31767 369.922049 L 496.31767 398.240816 " transform="matrix(0.749144, 0, 0, 0.749144, 0.440349, 0.00000299658)"/>
<path fill="none" stroke-width="3.84" stroke-linecap="round" stroke-linejoin="round" stroke="rgb(0%, 0%, 0%)" stroke-opacity="1" stroke-miterlimit="10" d="M 508.320949 436.320721 L 509.921733 437.921506 " transform="matrix(0.749144, 0, 0, 0.749144, 0.440349, 0.00000299658)"/>
<path fill="none" stroke-width="3.84" stroke-linecap="round" stroke-linejoin="round" stroke="rgb(0%, 0%, 0%)" stroke-opacity="1" stroke-miterlimit="10" d="M 519.677656 422.398587 L 500.801953 422.398587 " transform="matrix(0.749144, 0, 0, 0.749144, 0.440349, 0.00000299658)"/>
<path fill="none" stroke-width="3.84" stroke-linecap="round" stroke-linejoin="round" stroke="rgb(0%, 0%, 0%)" stroke-opacity="1" stroke-miterlimit="10" d="M 498.877883 436.320721 L 508.320949 436.320721 " transform="matrix(0.749144, 0, 0, 0.749144, 0.440349, 0.00000299658)"/>
<path fill="none" stroke-width="3.84" stroke-linecap="round" stroke-linejoin="round" stroke="rgb(0%, 0%, 0%)" stroke-opacity="1" stroke-miterlimit="10" d="M 509.921733 437.921506 L 518.879871 428.801726 " transform="matrix(0.749144, 0, 0, 0.749144, 0.440349, 0.00000299658)"/>
<path fill="none" stroke-width="3.84" stroke-linecap="round" stroke-linejoin="round" stroke="rgb(0%, 0%, 0%)" stroke-opacity="1" stroke-miterlimit="10" d="M 500.801953 422.398587 L 498.877883 424.317443 " transform="matrix(0.749144, 0, 0, 0.749144, 0.440349, 0.00000299658)"/>
<path fill="none" stroke-width="3.84" stroke-linecap="round" stroke-linejoin="round" stroke="rgb(0%, 0%, 0%)" stroke-opacity="1" stroke-miterlimit="10" d="M 537.760787 376.638044 L 546.077568 368.321264 " transform="matrix(0.749144, 0, 0, 0.749144, 0.440349, 0.00000299658)"/>
<path fill="none" stroke-width="3.84" stroke-linecap="round" stroke-linejoin="round" stroke="rgb(0%, 0%, 0%)" stroke-opacity="1" stroke-miterlimit="10" d="M 537.760787 376.638044 L 532.958433 376.638044 " transform="matrix(0.749144, 0, 0, 0.749144, 0.440349, 0.00000299658)"/>
<path fill="none" stroke-width="3.84" stroke-linecap="round" stroke-linejoin="round" stroke="rgb(0%, 0%, 0%)" stroke-opacity="1" stroke-miterlimit="10" d="M 563.201271 376.319973 L 559.358345 376.319973 " transform="matrix(0.749144, 0, 0, 0.749144, 0.440349, 0.00000299658)"/>
<path fill="none" stroke-width="3.84" stroke-linecap="round" stroke-linejoin="round" stroke="rgb(0%, 0%, 0%)" stroke-opacity="1" stroke-miterlimit="10" d="M 533.438147 365.599408 L 539.038286 365.599408 " transform="matrix(0.749144, 0, 0, 0.749144, 0.440349, 0.00000299658)"/>
<path fill="none" stroke-width="3.84" stroke-linecap="round" stroke-linejoin="round" stroke="rgb(0%, 0%, 0%)" stroke-opacity="1" stroke-miterlimit="10" d="M 563.201271 389.121036 L 550.718279 376.638044 " transform="matrix(0.749144, 0, 0, 0.749144, 0.440349, 0.00000299658)"/>
<path fill="none" stroke-width="3.84" stroke-linecap="round" stroke-linejoin="round" stroke="rgb(0%, 0%, 0%)" stroke-opacity="1" stroke-miterlimit="10" d="M 550.718279 389.60075 L 537.760787 376.638044 " transform="matrix(0.749144, 0, 0, 0.749144, 0.440349, 0.00000299658)"/>
<path fill="none" stroke-width="3.84" stroke-linecap="round" stroke-linejoin="round" stroke="rgb(0%, 0%, 0%)" stroke-opacity="1" stroke-miterlimit="10" d="M 559.358345 376.319973 L 551.521279 368.321264 " transform="matrix(0.749144, 0, 0, 0.749144, 0.440349, 0.00000299658)"/>
<path fill="none" stroke-width="3.2" stroke-linecap="round" stroke-linejoin="round" stroke="rgb(0%, 0%, 0%)" stroke-opacity="1" stroke-miterlimit="10" d="M 557.601132 367.361836 L 560.797487 370.558191 " transform="matrix(0.749144, 0, 0, 0.749144, 0.440349, 0.00000299658)"/>
<path fill="none" stroke-width="3.84" stroke-linecap="round" stroke-linejoin="round" stroke="rgb(0%, 0%, 0%)" stroke-opacity="1" stroke-miterlimit="10" d="M 532.958433 376.638044 L 526.87858 370.558191 " transform="matrix(0.749144, 0, 0, 0.749144, 0.440349, 0.00000299658)"/>
<path fill="none" stroke-width="3.84" stroke-linecap="round" stroke-linejoin="round" stroke="rgb(0%, 0%, 0%)" stroke-opacity="1" stroke-miterlimit="10" d="M 542.078213 354.722415 L 539.038286 354.722415 " transform="matrix(0.749144, 0, 0, 0.749144, 0.440349, 0.00000299658)"/>
<path fill="none" stroke-width="3.84" stroke-linecap="round" stroke-linejoin="round" stroke="rgb(0%, 0%, 0%)" stroke-opacity="1" stroke-miterlimit="10" d="M 546.077568 358.878198 L 542.078213 354.722415 " transform="matrix(0.749144, 0, 0, 0.749144, 0.440349, 0.00000299658)"/>
<path fill="none" stroke-width="3.84" stroke-linecap="round" stroke-linejoin="round" stroke="rgb(0%, 0%, 0%)" stroke-opacity="1" stroke-miterlimit="10" d="M 546.077568 368.321264 L 546.077568 358.878198 " transform="matrix(0.749144, 0, 0, 0.749144, 0.440349, 0.00000299658)"/>
<path fill="none" stroke-width="3.84" stroke-linecap="round" stroke-linejoin="round" stroke="rgb(0%, 0%, 0%)" stroke-opacity="1" stroke-miterlimit="10" d="M 551.521279 368.321264 L 551.521279 357.762342 " transform="matrix(0.749144, 0, 0, 0.749144, 0.440349, 0.00000299658)"/>
<path fill="none" stroke-width="3.84" stroke-linecap="round" stroke-linejoin="round" stroke="rgb(0%, 0%, 0%)" stroke-opacity="1" stroke-miterlimit="10" d="M 573.118836 365.599408 L 563.201271 365.599408 " transform="matrix(0.749144, 0, 0, 0.749144, 0.440349, 0.00000299658)"/>
<path fill="none" stroke-width="3.84" stroke-linecap="round" stroke-linejoin="round" stroke="rgb(0%, 0%, 0%)" stroke-opacity="1" stroke-miterlimit="10" d="M 578.718976 359.999269 L 573.118836 365.599408 " transform="matrix(0.749144, 0, 0, 0.749144, 0.440349, 0.00000299658)"/>
<path fill="none" stroke-width="3.84" stroke-linecap="round" stroke-linejoin="round" stroke="rgb(0%, 0%, 0%)" stroke-opacity="1" stroke-miterlimit="10" d="M 591.201968 353.757773 L 578.718976 353.757773 " transform="matrix(0.749144, 0, 0, 0.749144, 0.440349, 0.00000299658)"/>
<path fill="none" stroke-width="3.84" stroke-linecap="round" stroke-linejoin="round" stroke="rgb(0%, 0%, 0%)" stroke-opacity="1" stroke-miterlimit="10" d="M 578.718976 353.757773 L 578.718976 359.999269 " transform="matrix(0.749144, 0, 0, 0.749144, 0.440349, 0.00000299658)"/>
<path fill="none" stroke-width="3.84" stroke-linecap="round" stroke-linejoin="round" stroke="rgb(0%, 0%, 0%)" stroke-opacity="1" stroke-miterlimit="10" d="M 597.120178 347.198206 L 527.040223 347.198206 " transform="matrix(0.749144, 0, 0, 0.749144, 0.440349, 0.00000299658)"/>
<path fill="none" stroke-width="3.84" stroke-linecap="round" stroke-linejoin="round" stroke="rgb(0%, 0%, 0%)" stroke-opacity="1" stroke-miterlimit="10" d="M 587.838756 376.319973 L 563.201271 376.319973 " transform="matrix(0.749144, 0, 0, 0.749144, 0.440349, 0.00000299658)"/>
<path fill="none" stroke-width="3.2" stroke-linecap="round" stroke-linejoin="round" stroke="rgb(0%, 0%, 0%)" stroke-opacity="1" stroke-miterlimit="10" d="M 560.797487 370.558191 L 594.559966 370.558191 " transform="matrix(0.749144, 0, 0, 0.749144, 0.440349, 0.00000299658)"/>
<path fill="none" stroke-width="3.2" stroke-linecap="round" stroke-linejoin="round" stroke="rgb(0%, 0%, 0%)" stroke-opacity="1" stroke-miterlimit="10" d="M 557.601132 361.438411 L 557.601132 367.361836 " transform="matrix(0.749144, 0, 0, 0.749144, 0.440349, 0.00000299658)"/>
<path fill="none" stroke-width="3.2" stroke-linecap="round" stroke-linejoin="round" stroke="rgb(0%, 0%, 0%)" stroke-opacity="1" stroke-miterlimit="10" d="M 558.878631 360.160912 L 557.601132 361.438411 " transform="matrix(0.749144, 0, 0, 0.749144, 0.440349, 0.00000299658)"/>
<path fill="none" stroke-width="3.84" stroke-linecap="round" stroke-linejoin="round" stroke="rgb(0%, 0%, 0%)" stroke-opacity="1" stroke-miterlimit="10" d="M 551.521279 357.762342 L 554.399562 354.722415 " transform="matrix(0.749144, 0, 0, 0.749144, 0.440349, 0.00000299658)"/>
<path fill="none" stroke-width="3.2" stroke-linecap="round" stroke-linejoin="round" stroke="rgb(0%, 0%, 0%)" stroke-opacity="1" stroke-miterlimit="10" d="M 563.201271 360.160912 L 558.878631 360.160912 " transform="matrix(0.749144, 0, 0, 0.749144, 0.440349, 0.00000299658)"/>
<path fill="none" stroke-width="3.84" stroke-linecap="round" stroke-linejoin="round" stroke="rgb(0%, 0%, 0%)" stroke-opacity="1" stroke-miterlimit="10" d="M 554.399562 354.722415 L 563.201271 354.722415 " transform="matrix(0.749144, 0, 0, 0.749144, 0.440349, 0.00000299658)"/>
<path fill="none" stroke-width="3.84" stroke-linecap="round" stroke-linejoin="round" stroke="rgb(0%, 0%, 0%)" stroke-opacity="1" stroke-miterlimit="10" d="M 514.077516 370.558191 L 509.921733 374.719188 " transform="matrix(0.749144, 0, 0, 0.749144, 0.440349, 0.00000299658)"/>
<path fill="none" stroke-width="3.84" stroke-linecap="round" stroke-linejoin="round" stroke="rgb(0%, 0%, 0%)" stroke-opacity="1" stroke-miterlimit="10" d="M 533.281719 365.281337 L 533.438147 365.599408 " transform="matrix(0.749144, 0, 0, 0.749144, 0.440349, 0.00000299658)"/>
<path fill="none" stroke-width="3.84" stroke-linecap="round" stroke-linejoin="round" stroke="rgb(0%, 0%, 0%)" stroke-opacity="1" stroke-miterlimit="10" d="M 510.078162 352.00056 L 509.921733 351.838917 " transform="matrix(0.749144, 0, 0, 0.749144, 0.440349, 0.00000299658)"/>
<path fill="none" stroke-width="3.84" stroke-linecap="round" stroke-linejoin="round" stroke="rgb(0%, 0%, 0%)" stroke-opacity="1" stroke-miterlimit="10" d="M 522.237868 352.00056 L 510.078162 352.00056 " transform="matrix(0.749144, 0, 0, 0.749144, 0.440349, 0.00000299658)"/>
<path fill="none" stroke-width="3.84" stroke-linecap="round" stroke-linejoin="round" stroke="rgb(0%, 0%, 0%)" stroke-opacity="1" stroke-miterlimit="10" d="M 527.040223 347.198206 L 522.237868 352.00056 " transform="matrix(0.749144, 0, 0, 0.749144, 0.440349, 0.00000299658)"/>
<path fill="none" stroke-width="3.84" stroke-linecap="round" stroke-linejoin="round" stroke="rgb(0%, 0%, 0%)" stroke-opacity="1" stroke-miterlimit="10" d="M 526.87858 370.558191 L 514.077516 370.558191 " transform="matrix(0.749144, 0, 0, 0.749144, 0.440349, 0.00000299658)"/>
<path fill="none" stroke-width="3.84" stroke-linecap="round" stroke-linejoin="round" stroke="rgb(0%, 0%, 0%)" stroke-opacity="1" stroke-miterlimit="10" d="M 511.840589 365.281337 L 533.281719 365.281337 " transform="matrix(0.749144, 0, 0, 0.749144, 0.440349, 0.00000299658)"/>
<path fill="none" stroke-width="3.2" stroke-linecap="round" stroke-linejoin="round" stroke="rgb(0%, 0%, 0%)" stroke-opacity="1" stroke-miterlimit="10" d="M 539.038286 360.160912 L 505.922379 360.160912 " transform="matrix(0.749144, 0, 0, 0.749144, 0.440349, 0.00000299658)"/>
<path fill-rule="nonzero" fill="rgb(0%, 0%, 0%)" fill-opacity="1" d="M 403.898438 326.265625 L 400.78125 326.265625 L 400.78125 329.265625 L 403.898438 329.265625 Z M 403.898438 326.265625 "/>
<path fill="none" stroke-width="1.92" stroke-linecap="round" stroke-linejoin="round" stroke="rgb(0%, 0%, 0%)" stroke-opacity="1" stroke-miterlimit="10" d="M 534.397575 435.517721 L 538.558572 435.517721 " transform="matrix(0.749144, 0, 0, 0.749144, 0.440349, 0.00000299658)"/>
<path fill="none" stroke-width="1.92" stroke-linecap="round" stroke-linejoin="round" stroke="rgb(0%, 0%, 0%)" stroke-opacity="1" stroke-miterlimit="10" d="M 538.558572 435.517721 L 538.558572 439.52229 " transform="matrix(0.749144, 0, 0, 0.749144, 0.440349, 0.00000299658)"/>
<path fill="none" stroke-width="1.92" stroke-linecap="round" stroke-linejoin="round" stroke="rgb(0%, 0%, 0%)" stroke-opacity="1" stroke-miterlimit="10" d="M 538.558572 439.52229 L 534.397575 439.52229 " transform="matrix(0.749144, 0, 0, 0.749144, 0.440349, 0.00000299658)"/>
<path fill="none" stroke-width="1.92" stroke-linecap="round" stroke-linejoin="round" stroke="rgb(0%, 0%, 0%)" stroke-opacity="1" stroke-miterlimit="10" d="M 534.397575 439.52229 L 534.397575 435.517721 " transform="matrix(0.749144, 0, 0, 0.749144, 0.440349, 0.00000299658)"/>
<path fill-rule="nonzero" fill="rgb(0%, 0%, 0%)" fill-opacity="1" d="M 410.851562 311.285156 C 410.851562 312.601562 409.773438 313.683594 408.453125 313.683594 C 407.136719 313.683594 406.175781 312.601562 406.175781 311.285156 C 406.175781 309.964844 407.136719 309.007812 408.453125 309.007812 C 409.773438 309.007812 410.851562 309.964844 410.851562 311.285156 Z M 410.851562 311.285156 "/>
<path fill-rule="nonzero" fill="rgb(0%, 0%, 0%)" fill-opacity="1" d="M 410.371094 327.824219 C 410.371094 329.144531 409.292969 330.222656 407.976562 330.222656 C 406.65625 330.222656 405.699219 329.144531 405.699219 327.824219 C 405.699219 326.507812 406.65625 325.546875 407.976562 325.546875 C 409.292969 325.546875 410.371094 326.507812 410.371094 327.824219 Z M 410.371094 327.824219 "/>
<path fill-rule="nonzero" fill="rgb(0%, 0%, 0%)" fill-opacity="1" d="M 404.378906 309.847656 L 401.261719 309.847656 L 401.261719 312.84375 L 404.378906 312.84375 Z M 404.378906 309.847656 "/>
<path fill="none" stroke-width="1.92" stroke-linecap="round" stroke-linejoin="round" stroke="rgb(0%, 0%, 0%)" stroke-opacity="1" stroke-miterlimit="10" d="M 535.038932 413.602092 L 539.199929 413.602092 " transform="matrix(0.749144, 0, 0, 0.749144, 0.440349, 0.00000299658)"/>
<path fill="none" stroke-width="1.92" stroke-linecap="round" stroke-linejoin="round" stroke="rgb(0%, 0%, 0%)" stroke-opacity="1" stroke-miterlimit="10" d="M 539.199929 413.602092 L 539.199929 417.601447 " transform="matrix(0.749144, 0, 0, 0.749144, 0.440349, 0.00000299658)"/>
<path fill="none" stroke-width="1.92" stroke-linecap="round" stroke-linejoin="round" stroke="rgb(0%, 0%, 0%)" stroke-opacity="1" stroke-miterlimit="10" d="M 539.199929 417.601447 L 535.038932 417.601447 " transform="matrix(0.749144, 0, 0, 0.749144, 0.440349, 0.00000299658)"/>
<path fill="none" stroke-width="1.92" stroke-linecap="round" stroke-linejoin="round" stroke="rgb(0%, 0%, 0%)" stroke-opacity="1" stroke-miterlimit="10" d="M 535.038932 417.601447 L 535.038932 413.602092 " transform="matrix(0.749144, 0, 0, 0.749144, 0.440349, 0.00000299658)"/>
<path fill-rule="nonzero" fill="rgb(0%, 0%, 0%)" fill-opacity="1" d="M 393.949219 328.066406 C 393.949219 329.382812 392.871094 330.460938 391.554688 330.460938 C 390.234375 330.460938 389.277344 329.382812 389.277344 328.066406 C 389.277344 326.746094 390.234375 325.789062 391.554688 325.789062 C 392.871094 325.789062 393.949219 326.746094 393.949219 328.066406 Z M 393.949219 328.066406 "/>
<path fill-rule="nonzero" fill="rgb(0%, 0%, 0%)" fill-opacity="1" d="M 384.839844 328.066406 C 384.839844 329.382812 383.761719 330.460938 382.445312 330.460938 C 381.125 330.460938 380.167969 329.382812 380.167969 328.066406 C 380.167969 326.746094 381.125 325.789062 382.445312 325.789062 C 383.761719 325.789062 384.839844 326.746094 384.839844 328.066406 Z M 384.839844 328.066406 "/>
<path fill-rule="nonzero" fill="rgb(0%, 0%, 0%)" fill-opacity="1" d="M 376.570312 326.867188 C 376.570312 328.183594 375.492188 329.265625 374.171875 329.265625 C 372.855469 329.265625 371.894531 328.183594 371.894531 326.867188 C 371.894531 325.546875 372.855469 324.589844 374.171875 324.589844 C 375.492188 324.589844 376.570312 325.546875 376.570312 326.867188 Z M 376.570312 326.867188 "/>
<path fill-rule="nonzero" fill="rgb(0%, 0%, 0%)" fill-opacity="1" d="M 350.320312 300.136719 L 345.40625 300.136719 L 345.40625 304.933594 L 350.320312 304.933594 Z M 350.320312 300.136719 "/>
<path fill-rule="nonzero" fill="rgb(0%, 0%, 0%)" fill-opacity="1" d="M 357.511719 302.535156 C 357.511719 303.851562 356.3125 305.050781 354.996094 305.050781 C 353.675781 305.050781 352.597656 303.851562 352.597656 302.535156 C 352.597656 301.214844 353.675781 300.136719 354.996094 300.136719 C 356.3125 300.136719 357.511719 301.214844 357.511719 302.535156 Z M 357.511719 302.535156 "/>
<path fill-rule="nonzero" fill="rgb(0%, 0%, 0%)" fill-opacity="1" d="M 376.570312 317.875 C 376.570312 319.195312 375.492188 320.273438 374.171875 320.273438 C 372.855469 320.273438 371.894531 319.195312 371.894531 317.875 C 371.894531 316.558594 372.855469 315.597656 374.171875 315.597656 C 375.492188 315.597656 376.570312 316.558594 376.570312 317.875 Z M 376.570312 317.875 "/>
<path fill-rule="nonzero" fill="rgb(0%, 0%, 0%)" fill-opacity="1" d="M 347.804688 326.867188 C 347.804688 328.183594 346.726562 329.265625 345.40625 329.265625 C 344.085938 329.265625 343.128906 328.183594 343.128906 326.867188 C 343.128906 325.546875 344.085938 324.589844 345.40625 324.589844 C 346.726562 324.589844 347.804688 325.546875 347.804688 326.867188 Z M 347.804688 326.867188 "/>
<path fill-rule="nonzero" fill="rgb(0%, 0%, 0%)" fill-opacity="1" d="M 347.804688 317.875 C 347.804688 319.195312 346.726562 320.273438 345.40625 320.273438 C 344.085938 320.273438 343.128906 319.195312 343.128906 317.875 C 343.128906 316.558594 344.085938 315.597656 345.40625 315.597656 C 346.726562 315.597656 347.804688 316.558594 347.804688 317.875 Z M 347.804688 317.875 "/>
<path fill-rule="nonzero" fill="rgb(0%, 0%, 0%)" fill-opacity="1" d="M 415.40625 296.300781 C 415.40625 297.621094 414.328125 298.699219 413.007812 298.699219 C 411.691406 298.699219 410.730469 297.621094 410.730469 296.300781 C 410.730469 294.984375 411.691406 294.023438 413.007812 294.023438 C 414.328125 294.023438 415.40625 294.984375 415.40625 296.300781 Z M 415.40625 296.300781 "/>
<path fill-rule="nonzero" fill="rgb(0%, 0%, 0%)" fill-opacity="1" d="M 394.070312 292.464844 C 394.070312 293.785156 392.992188 294.863281 391.671875 294.863281 C 390.355469 294.863281 389.394531 293.785156 389.394531 292.464844 C 389.394531 291.148438 390.355469 290.1875 391.671875 290.1875 C 392.992188 290.1875 394.070312 291.148438 394.070312 292.464844 Z M 394.070312 292.464844 "/>
<path fill-rule="nonzero" fill="rgb(0%, 0%, 0%)" fill-opacity="1" d="M 405.699219 296.300781 C 405.699219 297.621094 404.617188 298.699219 403.300781 298.699219 C 401.980469 298.699219 401.023438 297.621094 401.023438 296.300781 C 401.023438 294.984375 401.980469 294.023438 403.300781 294.023438 C 404.617188 294.023438 405.699219 294.984375 405.699219 296.300781 Z M 405.699219 296.300781 "/>
<path fill-rule="nonzero" fill="rgb(0%, 0%, 0%)" fill-opacity="1" d="M 405.699219 282.15625 C 405.699219 283.476562 404.617188 284.554688 403.300781 284.554688 C 401.980469 284.554688 401.023438 283.476562 401.023438 282.15625 C 401.023438 280.839844 401.980469 279.878906 403.300781 279.878906 C 404.617188 279.878906 405.699219 280.839844 405.699219 282.15625 Z M 405.699219 282.15625 "/>
<path fill-rule="nonzero" fill="rgb(0%, 0%, 0%)" fill-opacity="1" d="M 384.839844 299.296875 C 384.839844 300.617188 383.761719 301.695312 382.445312 301.695312 C 381.125 301.695312 380.167969 300.617188 380.167969 299.296875 C 380.167969 297.980469 381.125 297.019531 382.445312 297.019531 C 383.761719 297.019531 384.839844 297.980469 384.839844 299.296875 Z M 384.839844 299.296875 "/>
<path fill-rule="nonzero" fill="rgb(0%, 0%, 0%)" fill-opacity="1" d="M 393.949219 299.296875 C 393.949219 300.617188 392.871094 301.695312 391.554688 301.695312 C 390.234375 301.695312 389.277344 300.617188 389.277344 299.296875 C 389.277344 297.980469 390.234375 297.019531 391.554688 297.019531 C 392.871094 297.019531 393.949219 297.980469 393.949219 299.296875 Z M 393.949219 299.296875 "/>
<path fill-rule="nonzero" fill="rgb(0%, 0%, 0%)" fill-opacity="1" d="M 415.40625 282.15625 C 415.40625 283.476562 414.328125 284.554688 413.007812 284.554688 C 411.691406 284.554688 410.730469 283.476562 410.730469 282.15625 C 410.730469 280.839844 411.691406 279.878906 413.007812 279.878906 C 414.328125 279.878906 415.40625 280.839844 415.40625 282.15625 Z M 415.40625 282.15625 "/>
<path fill-rule="nonzero" fill="rgb(0%, 0%, 0%)" fill-opacity="1" d="M 384.839844 292.347656 C 384.839844 293.664062 383.761719 294.742188 382.445312 294.742188 C 381.125 294.742188 380.167969 293.664062 380.167969 292.347656 C 380.167969 291.027344 381.125 290.070312 382.445312 290.070312 C 383.761719 290.070312 384.839844 291.027344 384.839844 292.347656 Z M 384.839844 292.347656 "/>
<path fill="none" stroke-width="4" stroke-linecap="round" stroke-linejoin="round" stroke="rgb(0%, 0%, 0%)" stroke-opacity="1" stroke-miterlimit="10" d="M 539.841286 355.358558 L 538.078858 355.358558 " transform="matrix(0.749144, 0, 0, 0.749144, 0.440349, 0.00000299658)"/>
<path fill="none" stroke-width="4" stroke-linecap="round" stroke-linejoin="round" stroke="rgb(0%, 0%, 0%)" stroke-opacity="1" stroke-miterlimit="10" d="M 539.841286 360.160912 L 538.078858 360.160912 " transform="matrix(0.749144, 0, 0, 0.749144, 0.440349, 0.00000299658)"/>
<path fill-rule="nonzero" fill="rgb(0%, 0%, 0%)" fill-opacity="1" d="M 361.347656 280.597656 L 355.355469 280.597656 L 355.355469 286.59375 L 361.347656 286.59375 Z M 361.347656 280.597656 "/>
<path fill="none" stroke-width="1.92" stroke-linecap="round" stroke-linejoin="round" stroke="rgb(0%, 0%, 0%)" stroke-opacity="1" stroke-miterlimit="10" d="M 473.760685 382.561469 L 473.760685 374.557546 " transform="matrix(0.749144, 0, 0, 0.749144, 0.440349, 0.00000299658)"/>
<path fill="none" stroke-width="1.92" stroke-linecap="round" stroke-linejoin="round" stroke="rgb(0%, 0%, 0%)" stroke-opacity="1" stroke-miterlimit="10" d="M 473.760685 374.557546 L 481.759394 374.557546 " transform="matrix(0.749144, 0, 0, 0.749144, 0.440349, 0.00000299658)"/>
<path fill="none" stroke-width="1.92" stroke-linecap="round" stroke-linejoin="round" stroke="rgb(0%, 0%, 0%)" stroke-opacity="1" stroke-miterlimit="10" d="M 481.759394 374.557546 L 481.759394 382.561469 " transform="matrix(0.749144, 0, 0, 0.749144, 0.440349, 0.00000299658)"/>
<path fill="none" stroke-width="1.92" stroke-linecap="round" stroke-linejoin="round" stroke="rgb(0%, 0%, 0%)" stroke-opacity="1" stroke-miterlimit="10" d="M 481.759394 382.561469 L 473.760685 382.561469 " transform="matrix(0.749144, 0, 0, 0.749144, 0.440349, 0.00000299658)"/>
<path fill-rule="nonzero" fill="rgb(0%, 0%, 0%)" fill-opacity="1" d="M 394.070312 263.699219 C 394.070312 265.015625 392.992188 266.097656 391.671875 266.097656 C 390.355469 266.097656 389.394531 265.015625 389.394531 263.699219 C 389.394531 262.378906 390.355469 261.421875 391.671875 261.421875 C 392.992188 261.421875 394.070312 262.378906 394.070312 263.699219 Z M 394.070312 263.699219 "/>
<path fill-rule="nonzero" fill="rgb(0%, 0%, 0%)" fill-opacity="1" d="M 362.1875 269.453125 C 362.1875 271.488281 360.390625 273.289062 358.351562 273.289062 C 356.3125 273.289062 354.636719 271.488281 354.636719 269.453125 C 354.636719 267.414062 356.3125 265.738281 358.351562 265.738281 C 360.390625 265.738281 362.1875 267.414062 362.1875 269.453125 Z M 362.1875 269.453125 "/>
<path fill-rule="nonzero" fill="rgb(0%, 0%, 0%)" fill-opacity="1" d="M 406.296875 271.96875 L 402.101562 271.96875 L 402.101562 274.847656 L 406.296875 274.847656 Z M 406.296875 271.96875 "/>
<path fill-rule="nonzero" fill="rgb(0%, 0%, 0%)" fill-opacity="1" d="M 384.839844 263.578125 C 384.839844 264.898438 383.761719 265.976562 382.445312 265.976562 C 381.125 265.976562 380.167969 264.898438 380.167969 263.578125 C 380.167969 262.261719 381.125 261.300781 382.445312 261.300781 C 383.761719 261.300781 384.839844 262.261719 384.839844 263.578125 Z M 384.839844 263.578125 "/>
<path fill-rule="nonzero" fill="rgb(0%, 0%, 0%)" fill-opacity="1" d="M 477.617188 296.660156 C 477.617188 297.980469 476.535156 299.058594 475.21875 299.058594 C 473.898438 299.058594 472.941406 297.980469 472.941406 296.660156 C 472.941406 295.34375 473.898438 294.382812 475.21875 294.382812 C 476.535156 294.382812 477.617188 295.34375 477.617188 296.660156 Z M 477.617188 296.660156 "/>
<path fill-rule="nonzero" fill="rgb(0%, 0%, 0%)" fill-opacity="1" d="M 464.308594 300.976562 C 464.308594 302.292969 463.230469 303.375 461.914062 303.375 C 460.59375 303.375 459.636719 302.292969 459.636719 300.976562 C 459.636719 299.65625 460.59375 298.699219 461.914062 298.699219 C 463.230469 298.699219 464.308594 299.65625 464.308594 300.976562 Z M 464.308594 300.976562 "/>
<path fill-rule="nonzero" fill="rgb(0%, 0%, 0%)" fill-opacity="1" d="M 488.042969 324.46875 C 488.042969 326.507812 486.246094 328.304688 484.207031 328.304688 C 482.171875 328.304688 480.492188 326.507812 480.492188 324.46875 C 480.492188 322.433594 482.171875 320.753906 484.207031 320.753906 C 486.246094 320.753906 488.042969 322.433594 488.042969 324.46875 Z M 488.042969 324.46875 "/>
<path fill-rule="nonzero" fill="rgb(0%, 0%, 0%)" fill-opacity="1" d="M 455.082031 329.742188 C 455.082031 331.0625 454.003906 332.140625 452.683594 332.140625 C 451.367188 332.140625 450.40625 331.0625 450.40625 329.742188 C 450.40625 328.425781 451.367188 327.464844 452.683594 327.464844 C 454.003906 327.464844 455.082031 328.425781 455.082031 329.742188 Z M 455.082031 329.742188 "/>
<path fill-rule="nonzero" fill="rgb(0%, 0%, 0%)" fill-opacity="1" d="M 464.308594 329.742188 C 464.308594 331.0625 463.230469 332.140625 461.914062 332.140625 C 460.59375 332.140625 459.636719 331.0625 459.636719 329.742188 C 459.636719 328.425781 460.59375 327.464844 461.914062 327.464844 C 463.230469 327.464844 464.308594 328.425781 464.308594 329.742188 Z M 464.308594 329.742188 "/>
<path fill-rule="nonzero" fill="rgb(0%, 0%, 0%)" fill-opacity="1" d="M 487.203125 307.328125 L 481.210938 307.328125 L 481.210938 313.320312 L 487.203125 313.320312 Z M 487.203125 307.328125 "/>
<path fill="none" stroke-width="1.92" stroke-linecap="round" stroke-linejoin="round" stroke="rgb(0%, 0%, 0%)" stroke-opacity="1" stroke-miterlimit="10" d="M 649.758359 410.23888 L 649.758359 418.237589 " transform="matrix(0.749144, 0, 0, 0.749144, 0.440349, 0.00000299658)"/>
<path fill="none" stroke-width="1.92" stroke-linecap="round" stroke-linejoin="round" stroke="rgb(0%, 0%, 0%)" stroke-opacity="1" stroke-miterlimit="10" d="M 649.758359 418.237589 L 641.75965 418.237589 " transform="matrix(0.749144, 0, 0, 0.749144, 0.440349, 0.00000299658)"/>
<path fill="none" stroke-width="1.92" stroke-linecap="round" stroke-linejoin="round" stroke="rgb(0%, 0%, 0%)" stroke-opacity="1" stroke-miterlimit="10" d="M 641.75965 418.237589 L 641.75965 410.23888 " transform="matrix(0.749144, 0, 0, 0.749144, 0.440349, 0.00000299658)"/>
<path fill="none" stroke-width="1.92" stroke-linecap="round" stroke-linejoin="round" stroke="rgb(0%, 0%, 0%)" stroke-opacity="1" stroke-miterlimit="10" d="M 641.75965 410.23888 L 649.758359 410.23888 " transform="matrix(0.749144, 0, 0, 0.749144, 0.440349, 0.00000299658)"/>
<path fill-rule="nonzero" fill="rgb(0%, 0%, 0%)" fill-opacity="1" d="M 491.878906 296.660156 C 491.878906 297.980469 490.800781 299.058594 489.480469 299.058594 C 488.164062 299.058594 487.203125 297.980469 487.203125 296.660156 C 487.203125 295.34375 488.164062 294.382812 489.480469 294.382812 C 490.800781 294.382812 491.878906 295.34375 491.878906 296.660156 Z M 491.878906 296.660156 "/>
<path fill-rule="nonzero" fill="rgb(0%, 0%, 0%)" fill-opacity="1" d="M 464.308594 293.785156 C 464.308594 295.101562 463.230469 296.183594 461.914062 296.183594 C 460.59375 296.183594 459.636719 295.101562 459.636719 293.785156 C 459.636719 292.464844 460.59375 291.507812 461.914062 291.507812 C 463.230469 291.507812 464.308594 292.464844 464.308594 293.785156 Z M 464.308594 293.785156 "/>
<path fill-rule="nonzero" fill="rgb(0%, 0%, 0%)" fill-opacity="1" d="M 427.632812 318.117188 C 427.632812 320.15625 425.835938 321.953125 423.796875 321.953125 C 421.757812 321.953125 420.082031 320.15625 420.082031 318.117188 C 420.082031 316.078125 421.757812 314.402344 423.796875 314.402344 C 425.835938 314.402344 427.632812 316.078125 427.632812 318.117188 Z M 427.632812 318.117188 "/>
<path fill-rule="nonzero" fill="rgb(0%, 0%, 0%)" fill-opacity="1" d="M 445.730469 293.785156 C 445.730469 295.101562 444.652344 296.183594 443.335938 296.183594 C 442.015625 296.183594 441.058594 295.101562 441.058594 293.785156 C 441.058594 292.464844 442.015625 291.507812 443.335938 291.507812 C 444.652344 291.507812 445.730469 292.464844 445.730469 293.785156 Z M 445.730469 293.785156 "/>
<path fill-rule="nonzero" fill="rgb(0%, 0%, 0%)" fill-opacity="1" d="M 440.816406 315.121094 L 434.945312 315.121094 L 434.945312 320.992188 L 440.816406 320.992188 Z M 440.816406 315.121094 "/>
<path fill="none" stroke-width="1.92" stroke-linecap="round" stroke-linejoin="round" stroke="rgb(0%, 0%, 0%)" stroke-opacity="1" stroke-miterlimit="10" d="M 587.838756 428.47844 L 580.001689 428.47844 " transform="matrix(0.749144, 0, 0, 0.749144, 0.440349, 0.00000299658)"/>
<path fill="none" stroke-width="1.92" stroke-linecap="round" stroke-linejoin="round" stroke="rgb(0%, 0%, 0%)" stroke-opacity="1" stroke-miterlimit="10" d="M 580.001689 428.47844 L 580.001689 420.641374 " transform="matrix(0.749144, 0, 0, 0.749144, 0.440349, 0.00000299658)"/>
<path fill="none" stroke-width="1.92" stroke-linecap="round" stroke-linejoin="round" stroke="rgb(0%, 0%, 0%)" stroke-opacity="1" stroke-miterlimit="10" d="M 580.001689 420.641374 L 587.838756 420.641374 " transform="matrix(0.749144, 0, 0, 0.749144, 0.440349, 0.00000299658)"/>
<path fill="none" stroke-width="1.92" stroke-linecap="round" stroke-linejoin="round" stroke="rgb(0%, 0%, 0%)" stroke-opacity="1" stroke-miterlimit="10" d="M 587.838756 420.641374 L 587.838756 428.47844 " transform="matrix(0.749144, 0, 0, 0.749144, 0.440349, 0.00000299658)"/>
<path fill-rule="nonzero" fill="rgb(0%, 0%, 0%)" fill-opacity="1" d="M 436.382812 293.785156 C 436.382812 295.101562 435.304688 296.183594 433.984375 296.183594 C 432.667969 296.183594 431.707031 295.101562 431.707031 293.785156 C 431.707031 292.464844 432.667969 291.507812 433.984375 291.507812 C 435.304688 291.507812 436.382812 292.464844 436.382812 293.785156 Z M 436.382812 293.785156 "/>
<path fill-rule="nonzero" fill="rgb(0%, 0%, 0%)" fill-opacity="1" d="M 455.082031 300.976562 C 455.082031 302.292969 454.003906 303.375 452.683594 303.375 C 451.367188 303.375 450.40625 302.292969 450.40625 300.976562 C 450.40625 299.65625 451.367188 298.699219 452.683594 298.699219 C 454.003906 298.699219 455.082031 299.65625 455.082031 300.976562 Z M 455.082031 300.976562 "/>
<path fill-rule="nonzero" fill="rgb(0%, 0%, 0%)" fill-opacity="1" d="M 455.082031 293.785156 C 455.082031 295.101562 454.003906 296.183594 452.683594 296.183594 C 451.367188 296.183594 450.40625 295.101562 450.40625 293.785156 C 450.40625 292.464844 451.367188 291.507812 452.683594 291.507812 C 454.003906 291.507812 455.082031 292.464844 455.082031 293.785156 Z M 455.082031 293.785156 "/>
<path fill-rule="nonzero" fill="rgb(0%, 0%, 0%)" fill-opacity="1" d="M 424.753906 296.0625 C 424.753906 297.378906 423.675781 298.460938 422.359375 298.460938 C 421.039062 298.460938 420.082031 297.378906 420.082031 296.0625 C 420.082031 294.742188 421.039062 293.785156 422.359375 293.785156 C 423.675781 293.785156 424.753906 294.742188 424.753906 296.0625 Z M 424.753906 296.0625 "/>
<path fill="none" stroke-width="4" stroke-linecap="round" stroke-linejoin="round" stroke="rgb(0%, 0%, 0%)" stroke-opacity="1" stroke-miterlimit="10" d="M 562.241843 360.160912 L 563.999056 360.160912 " transform="matrix(0.749144, 0, 0, 0.749144, 0.440349, 0.00000299658)"/>
<path fill-rule="nonzero" fill="rgb(0%, 0%, 0%)" fill-opacity="1" d="M 436.382812 265.015625 C 436.382812 266.335938 435.304688 267.414062 433.984375 267.414062 C 432.667969 267.414062 431.707031 266.335938 431.707031 265.015625 C 431.707031 263.699219 432.667969 262.738281 433.984375 262.738281 C 435.304688 262.738281 436.382812 263.699219 436.382812 265.015625 Z M 436.382812 265.015625 "/>
<path fill-rule="nonzero" fill="rgb(0%, 0%, 0%)" fill-opacity="1" d="M 424.394531 264.777344 L 420.199219 264.777344 L 420.199219 267.652344 L 424.394531 267.652344 Z M 424.394531 264.777344 "/>
<path fill="none" stroke-width="4" stroke-linecap="round" stroke-linejoin="round" stroke="rgb(0%, 0%, 0%)" stroke-opacity="1" stroke-miterlimit="10" d="M 562.241843 364.958052 L 563.999056 364.958052 " transform="matrix(0.749144, 0, 0, 0.749144, 0.440349, 0.00000299658)"/>
<path fill-rule="nonzero" fill="rgb(0%, 0%, 0%)" fill-opacity="1" d="M 424.753906 281.917969 C 424.753906 283.238281 423.675781 284.316406 422.359375 284.316406 C 421.039062 284.316406 420.082031 283.238281 420.082031 281.917969 C 420.082031 280.597656 421.039062 279.640625 422.359375 279.640625 C 423.675781 279.640625 424.753906 280.597656 424.753906 281.917969 Z M 424.753906 281.917969 "/>
<path fill-rule="nonzero" fill="rgb(0%, 0%, 0%)" fill-opacity="1" d="M 445.730469 265.015625 C 445.730469 266.335938 444.652344 267.414062 443.335938 267.414062 C 442.015625 267.414062 441.058594 266.335938 441.058594 265.015625 C 441.058594 263.699219 442.015625 262.738281 443.335938 262.738281 C 444.652344 262.738281 445.730469 263.699219 445.730469 265.015625 Z M 445.730469 265.015625 "/>
<path fill-rule="nonzero" fill="rgb(0%, 0%, 0%)" fill-opacity="1" d="M 455.082031 265.015625 C 455.082031 266.335938 454.003906 267.414062 452.683594 267.414062 C 451.367188 267.414062 450.40625 266.335938 450.40625 265.015625 C 450.40625 263.699219 451.367188 262.738281 452.683594 262.738281 C 454.003906 262.738281 455.082031 263.699219 455.082031 265.015625 Z M 455.082031 265.015625 "/>
<path fill-rule="nonzero" fill="rgb(0%, 0%, 0%)" fill-opacity="1" d="M 488.164062 283.597656 C 488.164062 285.632812 486.367188 287.433594 484.328125 287.433594 C 482.289062 287.433594 480.613281 285.632812 480.613281 283.597656 C 480.613281 281.558594 482.289062 279.878906 484.328125 279.878906 C 486.367188 279.878906 488.164062 281.558594 488.164062 283.597656 Z M 488.164062 283.597656 "/>
<path fill-rule="nonzero" fill="rgb(0%, 0%, 0%)" fill-opacity="1" d="M 487.324219 266.457031 L 481.449219 266.457031 L 481.449219 272.449219 L 487.324219 272.449219 Z M 487.324219 266.457031 "/>
<path fill="none" stroke-width="1.92" stroke-linecap="round" stroke-linejoin="round" stroke="rgb(0%, 0%, 0%)" stroke-opacity="1" stroke-miterlimit="10" d="M 649.920002 355.681843 L 649.920002 363.680552 " transform="matrix(0.749144, 0, 0, 0.749144, 0.440349, 0.00000299658)"/>
<path fill="none" stroke-width="1.92" stroke-linecap="round" stroke-linejoin="round" stroke="rgb(0%, 0%, 0%)" stroke-opacity="1" stroke-miterlimit="10" d="M 649.920002 363.680552 L 642.077721 363.680552 " transform="matrix(0.749144, 0, 0, 0.749144, 0.440349, 0.00000299658)"/>
<path fill="none" stroke-width="1.92" stroke-linecap="round" stroke-linejoin="round" stroke="rgb(0%, 0%, 0%)" stroke-opacity="1" stroke-miterlimit="10" d="M 642.077721 363.680552 L 642.077721 355.681843 " transform="matrix(0.749144, 0, 0, 0.749144, 0.440349, 0.00000299658)"/>
<path fill="none" stroke-width="1.92" stroke-linecap="round" stroke-linejoin="round" stroke="rgb(0%, 0%, 0%)" stroke-opacity="1" stroke-miterlimit="10" d="M 642.077721 355.681843 L 649.920002 355.681843 " transform="matrix(0.749144, 0, 0, 0.749144, 0.440349, 0.00000299658)"/>
<path fill-rule="nonzero" fill="rgb(0%, 0%, 0%)" fill-opacity="1" d="M 464.308594 265.015625 C 464.308594 266.335938 463.230469 267.414062 461.914062 267.414062 C 460.59375 267.414062 459.636719 266.335938 459.636719 265.015625 C 459.636719 263.699219 460.59375 262.738281 461.914062 262.738281 C 463.230469 262.738281 464.308594 263.699219 464.308594 265.015625 Z M 464.308594 265.015625 "/>
</svg>
